G04 #@! TF.GenerationSoftware,KiCad,Pcbnew,7.0.7*
G04 #@! TF.CreationDate,2023-09-07T14:52:05+08:00*
G04 #@! TF.ProjectId,rs485,72733438-352e-46b6-9963-61645f706362,rev?*
G04 #@! TF.SameCoordinates,Original*
G04 #@! TF.FileFunction,Copper,L2,Bot*
G04 #@! TF.FilePolarity,Positive*
%FSLAX46Y46*%
G04 Gerber Fmt 4.6, Leading zero omitted, Abs format (unit mm)*
G04 Created by KiCad (PCBNEW 7.0.7) date 2023-09-07 14:52:05*
%MOMM*%
%LPD*%
G01*
G04 APERTURE LIST*
G04 #@! TA.AperFunction,ComponentPad*
%ADD10R,1.700000X1.700000*%
G04 #@! TD*
G04 #@! TA.AperFunction,ComponentPad*
%ADD11O,1.700000X1.700000*%
G04 #@! TD*
G04 #@! TA.AperFunction,ViaPad*
%ADD12C,0.800000*%
G04 #@! TD*
G04 #@! TA.AperFunction,Conductor*
%ADD13C,0.250000*%
G04 #@! TD*
G04 APERTURE END LIST*
D10*
X133604000Y-97277000D03*
D11*
X133604000Y-99817000D03*
X133604000Y-102357000D03*
X133604000Y-104897000D03*
X133604000Y-107437000D03*
X133604000Y-109977000D03*
X133604000Y-112517000D03*
X133604000Y-115057000D03*
X133604000Y-117597000D03*
X133604000Y-120137000D03*
X133604000Y-122677000D03*
X133604000Y-125217000D03*
D10*
X165608000Y-125222000D03*
D11*
X165608000Y-122682000D03*
X165608000Y-120142000D03*
X165608000Y-117602000D03*
X165608000Y-115062000D03*
X165608000Y-112522000D03*
X165608000Y-109982000D03*
X165608000Y-107442000D03*
X165608000Y-104902000D03*
X165608000Y-102362000D03*
X165608000Y-99822000D03*
X165608000Y-97282000D03*
D12*
X154517700Y-121420000D03*
X154505200Y-119507500D03*
X154518600Y-117712500D03*
X136127000Y-120120000D03*
X151585000Y-121011000D03*
D13*
X155283900Y-117376400D02*
X155283900Y-120653800D01*
X134779300Y-97277000D02*
X135184500Y-97277000D01*
X155283900Y-120653800D02*
X154517700Y-121420000D01*
X133604000Y-97277000D02*
X134779300Y-97277000D01*
X135184500Y-97277000D02*
X155283900Y-117376400D01*
X133186000Y-103627000D02*
X138624700Y-103627000D01*
X138624700Y-103627000D02*
X154505200Y-119507500D01*
X133604000Y-99817000D02*
X133604000Y-100992300D01*
X133604000Y-100992300D02*
X133236700Y-100992300D01*
X132411400Y-102852400D02*
X133186000Y-103627000D01*
X133236700Y-100992300D02*
X132411400Y-101817600D01*
X132411400Y-101817600D02*
X132411400Y-102852400D01*
X133604000Y-102357000D02*
X139163100Y-102357000D01*
X139163100Y-102357000D02*
X154518600Y-117712500D01*
X134779300Y-117597000D02*
X134779300Y-118772300D01*
X134779300Y-118772300D02*
X136127000Y-120120000D01*
X133604000Y-117597000D02*
X134779300Y-117597000D01*
X133604000Y-122677000D02*
X149919000Y-122677000D01*
X149919000Y-122677000D02*
X151585000Y-121011000D01*
G04 #@! TA.AperFunction,Conductor*
G36*
X169361039Y-94507685D02*
G01*
X169406794Y-94560489D01*
X169418000Y-94612000D01*
X169418000Y-127638000D01*
X169398315Y-127705039D01*
X169345511Y-127750794D01*
X169294000Y-127762000D01*
X130426000Y-127762000D01*
X130358961Y-127742315D01*
X130313206Y-127689511D01*
X130302000Y-127638000D01*
X130302000Y-101797795D01*
X131781240Y-101797795D01*
X131785625Y-101844183D01*
X131785900Y-101850021D01*
X131785900Y-102769654D01*
X131784175Y-102785272D01*
X131784461Y-102785299D01*
X131783726Y-102793066D01*
X131785899Y-102862214D01*
X131785899Y-102891751D01*
X131786768Y-102898632D01*
X131787226Y-102904451D01*
X131788690Y-102951024D01*
X131788691Y-102951027D01*
X131794280Y-102970267D01*
X131798224Y-102989311D01*
X131800736Y-103009192D01*
X131817890Y-103052519D01*
X131819782Y-103058047D01*
X131832781Y-103102788D01*
X131842980Y-103120034D01*
X131851538Y-103137503D01*
X131858914Y-103156132D01*
X131886298Y-103193823D01*
X131889506Y-103198707D01*
X131913227Y-103238816D01*
X131913233Y-103238824D01*
X131927390Y-103252980D01*
X131940028Y-103267776D01*
X131951805Y-103283986D01*
X131951806Y-103283987D01*
X131987709Y-103313688D01*
X131992020Y-103317610D01*
X132482364Y-103807955D01*
X132547324Y-103872915D01*
X132580809Y-103934238D01*
X132575825Y-104003930D01*
X132561218Y-104031719D01*
X132429965Y-104219169D01*
X132429964Y-104219171D01*
X132330098Y-104433335D01*
X132330094Y-104433344D01*
X132268938Y-104661586D01*
X132268936Y-104661596D01*
X132248341Y-104896999D01*
X132248341Y-104897000D01*
X132268936Y-105132403D01*
X132268938Y-105132413D01*
X132330094Y-105360655D01*
X132330096Y-105360659D01*
X132330097Y-105360663D01*
X132332349Y-105365492D01*
X132429965Y-105574830D01*
X132429967Y-105574834D01*
X132565501Y-105768395D01*
X132565506Y-105768402D01*
X132732597Y-105935493D01*
X132732603Y-105935498D01*
X132918158Y-106065425D01*
X132961783Y-106120002D01*
X132968977Y-106189500D01*
X132937454Y-106251855D01*
X132918158Y-106268575D01*
X132732597Y-106398505D01*
X132565505Y-106565597D01*
X132429965Y-106759169D01*
X132429964Y-106759171D01*
X132330098Y-106973335D01*
X132330094Y-106973344D01*
X132268938Y-107201586D01*
X132268936Y-107201596D01*
X132248341Y-107436999D01*
X132248341Y-107437000D01*
X132268936Y-107672403D01*
X132268938Y-107672413D01*
X132330094Y-107900655D01*
X132330096Y-107900659D01*
X132330097Y-107900663D01*
X132429965Y-108114829D01*
X132429965Y-108114830D01*
X132429967Y-108114834D01*
X132565501Y-108308395D01*
X132565506Y-108308402D01*
X132732597Y-108475493D01*
X132732603Y-108475498D01*
X132918158Y-108605425D01*
X132961783Y-108660002D01*
X132968977Y-108729500D01*
X132937454Y-108791855D01*
X132918158Y-108808575D01*
X132732597Y-108938505D01*
X132565505Y-109105597D01*
X132429965Y-109299169D01*
X132429964Y-109299171D01*
X132330098Y-109513335D01*
X132330094Y-109513344D01*
X132268938Y-109741586D01*
X132268936Y-109741596D01*
X132248341Y-109976999D01*
X132248341Y-109977000D01*
X132268936Y-110212403D01*
X132268938Y-110212413D01*
X132330094Y-110440655D01*
X132330096Y-110440659D01*
X132330097Y-110440663D01*
X132429964Y-110654830D01*
X132429965Y-110654830D01*
X132429967Y-110654834D01*
X132565501Y-110848395D01*
X132565506Y-110848402D01*
X132732597Y-111015493D01*
X132732603Y-111015498D01*
X132918158Y-111145425D01*
X132961783Y-111200002D01*
X132968977Y-111269500D01*
X132937454Y-111331855D01*
X132918158Y-111348575D01*
X132732597Y-111478505D01*
X132565505Y-111645597D01*
X132429965Y-111839169D01*
X132429964Y-111839171D01*
X132330098Y-112053335D01*
X132330094Y-112053344D01*
X132268938Y-112281586D01*
X132268936Y-112281596D01*
X132248341Y-112516999D01*
X132248341Y-112517000D01*
X132268936Y-112752403D01*
X132268938Y-112752413D01*
X132330094Y-112980655D01*
X132330096Y-112980659D01*
X132330097Y-112980663D01*
X132429965Y-113194829D01*
X132429965Y-113194830D01*
X132429967Y-113194834D01*
X132565501Y-113388395D01*
X132565506Y-113388402D01*
X132732597Y-113555493D01*
X132732603Y-113555498D01*
X132918158Y-113685425D01*
X132961783Y-113740002D01*
X132968977Y-113809500D01*
X132937454Y-113871855D01*
X132918158Y-113888575D01*
X132732597Y-114018505D01*
X132565505Y-114185597D01*
X132429965Y-114379169D01*
X132429964Y-114379171D01*
X132330098Y-114593335D01*
X132330094Y-114593344D01*
X132268938Y-114821586D01*
X132268936Y-114821596D01*
X132248341Y-115056999D01*
X132248341Y-115057000D01*
X132268936Y-115292403D01*
X132268938Y-115292413D01*
X132330094Y-115520655D01*
X132330096Y-115520659D01*
X132330097Y-115520663D01*
X132429964Y-115734830D01*
X132429965Y-115734830D01*
X132429967Y-115734834D01*
X132565501Y-115928395D01*
X132565506Y-115928402D01*
X132732597Y-116095493D01*
X132732603Y-116095498D01*
X132918158Y-116225425D01*
X132961783Y-116280002D01*
X132968977Y-116349500D01*
X132937454Y-116411855D01*
X132918158Y-116428575D01*
X132732597Y-116558505D01*
X132565505Y-116725597D01*
X132429965Y-116919169D01*
X132429964Y-116919171D01*
X132330098Y-117133335D01*
X132330094Y-117133344D01*
X132268938Y-117361586D01*
X132268936Y-117361596D01*
X132248341Y-117596999D01*
X132248341Y-117597000D01*
X132268936Y-117832403D01*
X132268938Y-117832413D01*
X132330094Y-118060655D01*
X132330096Y-118060659D01*
X132330097Y-118060663D01*
X132429965Y-118274830D01*
X132429967Y-118274834D01*
X132565501Y-118468395D01*
X132565506Y-118468402D01*
X132732597Y-118635493D01*
X132732603Y-118635498D01*
X132918158Y-118765425D01*
X132961783Y-118820002D01*
X132968977Y-118889500D01*
X132937454Y-118951855D01*
X132918158Y-118968575D01*
X132732597Y-119098505D01*
X132565505Y-119265597D01*
X132429965Y-119459169D01*
X132429964Y-119459171D01*
X132330098Y-119673335D01*
X132330094Y-119673344D01*
X132268938Y-119901586D01*
X132268936Y-119901596D01*
X132248341Y-120136999D01*
X132248341Y-120137000D01*
X132268936Y-120372403D01*
X132268938Y-120372413D01*
X132330094Y-120600655D01*
X132330096Y-120600659D01*
X132330097Y-120600663D01*
X132412771Y-120777958D01*
X132429965Y-120814830D01*
X132429967Y-120814834D01*
X132538281Y-120969521D01*
X132541932Y-120974736D01*
X132565501Y-121008395D01*
X132565506Y-121008402D01*
X132732597Y-121175493D01*
X132732603Y-121175498D01*
X132918158Y-121305425D01*
X132961783Y-121360002D01*
X132968977Y-121429500D01*
X132937454Y-121491855D01*
X132918158Y-121508575D01*
X132732597Y-121638505D01*
X132565505Y-121805597D01*
X132429965Y-121999169D01*
X132429964Y-121999171D01*
X132330098Y-122213335D01*
X132330094Y-122213344D01*
X132268938Y-122441586D01*
X132268936Y-122441596D01*
X132248341Y-122676999D01*
X132248341Y-122677000D01*
X132268936Y-122912403D01*
X132268938Y-122912413D01*
X132330094Y-123140655D01*
X132330096Y-123140659D01*
X132330097Y-123140663D01*
X132376630Y-123240453D01*
X132429965Y-123354830D01*
X132429967Y-123354834D01*
X132538281Y-123509521D01*
X132565501Y-123548396D01*
X132565506Y-123548402D01*
X132732597Y-123715493D01*
X132732603Y-123715498D01*
X132918158Y-123845425D01*
X132961783Y-123900002D01*
X132968977Y-123969500D01*
X132937454Y-124031855D01*
X132918158Y-124048575D01*
X132732597Y-124178505D01*
X132565505Y-124345597D01*
X132429965Y-124539169D01*
X132429964Y-124539171D01*
X132330098Y-124753335D01*
X132330094Y-124753344D01*
X132268938Y-124981586D01*
X132268936Y-124981596D01*
X132248341Y-125216999D01*
X132248341Y-125217000D01*
X132268936Y-125452403D01*
X132268938Y-125452413D01*
X132330094Y-125680655D01*
X132330096Y-125680659D01*
X132330097Y-125680663D01*
X132429964Y-125894830D01*
X132429965Y-125894830D01*
X132429967Y-125894834D01*
X132538281Y-126049521D01*
X132565505Y-126088401D01*
X132732599Y-126255495D01*
X132816631Y-126314335D01*
X132926165Y-126391032D01*
X132926167Y-126391033D01*
X132926170Y-126391035D01*
X133140337Y-126490903D01*
X133368592Y-126552063D01*
X133556918Y-126568539D01*
X133603999Y-126572659D01*
X133604000Y-126572659D01*
X133604001Y-126572659D01*
X133643234Y-126569226D01*
X133839408Y-126552063D01*
X134067663Y-126490903D01*
X134281830Y-126391035D01*
X134475401Y-126255495D01*
X134642495Y-126088401D01*
X134778035Y-125894830D01*
X134877903Y-125680663D01*
X134939063Y-125452408D01*
X134959659Y-125217000D01*
X134939063Y-124981592D01*
X134877903Y-124753337D01*
X134778035Y-124539171D01*
X134642495Y-124345599D01*
X134642494Y-124345597D01*
X134475402Y-124178506D01*
X134475396Y-124178501D01*
X134289842Y-124048575D01*
X134246217Y-123993998D01*
X134239023Y-123924500D01*
X134270546Y-123862145D01*
X134289842Y-123845425D01*
X134312026Y-123829891D01*
X134475401Y-123715495D01*
X134642495Y-123548401D01*
X134777651Y-123355377D01*
X134832229Y-123311752D01*
X134879227Y-123302500D01*
X149836257Y-123302500D01*
X149851877Y-123304224D01*
X149851904Y-123303939D01*
X149859660Y-123304671D01*
X149859667Y-123304673D01*
X149928814Y-123302500D01*
X149958350Y-123302500D01*
X149965228Y-123301630D01*
X149971041Y-123301172D01*
X150017627Y-123299709D01*
X150036869Y-123294117D01*
X150055912Y-123290174D01*
X150075792Y-123287664D01*
X150119122Y-123270507D01*
X150124646Y-123268617D01*
X150128396Y-123267527D01*
X150169390Y-123255618D01*
X150186629Y-123245422D01*
X150204103Y-123236862D01*
X150222727Y-123229488D01*
X150222727Y-123229487D01*
X150222732Y-123229486D01*
X150260449Y-123202082D01*
X150265305Y-123198892D01*
X150305420Y-123175170D01*
X150319589Y-123160999D01*
X150334379Y-123148368D01*
X150350587Y-123136594D01*
X150380299Y-123100676D01*
X150384212Y-123096376D01*
X150798588Y-122682000D01*
X164252341Y-122682000D01*
X164272936Y-122917403D01*
X164272938Y-122917413D01*
X164334094Y-123145655D01*
X164334096Y-123145659D01*
X164334097Y-123145663D01*
X164408244Y-123304672D01*
X164433965Y-123359830D01*
X164433967Y-123359834D01*
X164542281Y-123514521D01*
X164569501Y-123553396D01*
X164569506Y-123553402D01*
X164691430Y-123675326D01*
X164724915Y-123736649D01*
X164719931Y-123806341D01*
X164678059Y-123862274D01*
X164647083Y-123879189D01*
X164515669Y-123928203D01*
X164515664Y-123928206D01*
X164400455Y-124014452D01*
X164400452Y-124014455D01*
X164314206Y-124129664D01*
X164314202Y-124129671D01*
X164263908Y-124264517D01*
X164257501Y-124324116D01*
X164257501Y-124324123D01*
X164257500Y-124324135D01*
X164257500Y-126119870D01*
X164257501Y-126119876D01*
X164263908Y-126179483D01*
X164314202Y-126314328D01*
X164314206Y-126314335D01*
X164400452Y-126429544D01*
X164400455Y-126429547D01*
X164515664Y-126515793D01*
X164515671Y-126515797D01*
X164650517Y-126566091D01*
X164650516Y-126566091D01*
X164657444Y-126566835D01*
X164710127Y-126572500D01*
X166505872Y-126572499D01*
X166565483Y-126566091D01*
X166700331Y-126515796D01*
X166815546Y-126429546D01*
X166901796Y-126314331D01*
X166952091Y-126179483D01*
X166958500Y-126119873D01*
X166958499Y-124324128D01*
X166952091Y-124264517D01*
X166901796Y-124129669D01*
X166901795Y-124129668D01*
X166901793Y-124129664D01*
X166815547Y-124014455D01*
X166815544Y-124014452D01*
X166700335Y-123928206D01*
X166700328Y-123928202D01*
X166568917Y-123879189D01*
X166512983Y-123837318D01*
X166488566Y-123771853D01*
X166503418Y-123703580D01*
X166524563Y-123675332D01*
X166646495Y-123553401D01*
X166782035Y-123359830D01*
X166881903Y-123145663D01*
X166943063Y-122917408D01*
X166963659Y-122682000D01*
X166963221Y-122676999D01*
X166943063Y-122446596D01*
X166943063Y-122446592D01*
X166881903Y-122218337D01*
X166782035Y-122004171D01*
X166778151Y-121998623D01*
X166646494Y-121810597D01*
X166479402Y-121643506D01*
X166479396Y-121643501D01*
X166293842Y-121513575D01*
X166250217Y-121458998D01*
X166243023Y-121389500D01*
X166274546Y-121327145D01*
X166293842Y-121310425D01*
X166406210Y-121231744D01*
X166479401Y-121180495D01*
X166646495Y-121013401D01*
X166782035Y-120819830D01*
X166881903Y-120605663D01*
X166943063Y-120377408D01*
X166963659Y-120142000D01*
X166963221Y-120136999D01*
X166952449Y-120013872D01*
X166943063Y-119906592D01*
X166881903Y-119678337D01*
X166782035Y-119464171D01*
X166774304Y-119453129D01*
X166646494Y-119270597D01*
X166479402Y-119103506D01*
X166479396Y-119103501D01*
X166293842Y-118973575D01*
X166250217Y-118918998D01*
X166243023Y-118849500D01*
X166274546Y-118787145D01*
X166293842Y-118770425D01*
X166316026Y-118754891D01*
X166479401Y-118640495D01*
X166646495Y-118473401D01*
X166782035Y-118279830D01*
X166881903Y-118065663D01*
X166943063Y-117837408D01*
X166963659Y-117602000D01*
X166963221Y-117596999D01*
X166957898Y-117536155D01*
X166943063Y-117366592D01*
X166895621Y-117189534D01*
X166881905Y-117138344D01*
X166881904Y-117138343D01*
X166881903Y-117138337D01*
X166782035Y-116924171D01*
X166779422Y-116920438D01*
X166646494Y-116730597D01*
X166479402Y-116563506D01*
X166479396Y-116563501D01*
X166293842Y-116433575D01*
X166250217Y-116378998D01*
X166243023Y-116309500D01*
X166274546Y-116247145D01*
X166293842Y-116230425D01*
X166316026Y-116214891D01*
X166479401Y-116100495D01*
X166646495Y-115933401D01*
X166782035Y-115739830D01*
X166881903Y-115525663D01*
X166943063Y-115297408D01*
X166963659Y-115062000D01*
X166963221Y-115056999D01*
X166943063Y-114826596D01*
X166943063Y-114826592D01*
X166881903Y-114598337D01*
X166782035Y-114384171D01*
X166646495Y-114190599D01*
X166646494Y-114190597D01*
X166479402Y-114023506D01*
X166479396Y-114023501D01*
X166293842Y-113893575D01*
X166250217Y-113838998D01*
X166243023Y-113769500D01*
X166274546Y-113707145D01*
X166293842Y-113690425D01*
X166316026Y-113674891D01*
X166479401Y-113560495D01*
X166646495Y-113393401D01*
X166782035Y-113199830D01*
X166881903Y-112985663D01*
X166943063Y-112757408D01*
X166963659Y-112522000D01*
X166963221Y-112516999D01*
X166943063Y-112286596D01*
X166943063Y-112286592D01*
X166881903Y-112058337D01*
X166782035Y-111844171D01*
X166646495Y-111650599D01*
X166646494Y-111650597D01*
X166479402Y-111483506D01*
X166479396Y-111483501D01*
X166293842Y-111353575D01*
X166250217Y-111298998D01*
X166243023Y-111229500D01*
X166274546Y-111167145D01*
X166293842Y-111150425D01*
X166316026Y-111134891D01*
X166479401Y-111020495D01*
X166646495Y-110853401D01*
X166782035Y-110659830D01*
X166881903Y-110445663D01*
X166943063Y-110217408D01*
X166963659Y-109982000D01*
X166963221Y-109976999D01*
X166943063Y-109746596D01*
X166943063Y-109746592D01*
X166881903Y-109518337D01*
X166782035Y-109304171D01*
X166646495Y-109110599D01*
X166646494Y-109110597D01*
X166479402Y-108943506D01*
X166479396Y-108943501D01*
X166293842Y-108813575D01*
X166250217Y-108758998D01*
X166243023Y-108689500D01*
X166274546Y-108627145D01*
X166293842Y-108610425D01*
X166316026Y-108594891D01*
X166479401Y-108480495D01*
X166646495Y-108313401D01*
X166782035Y-108119830D01*
X166881903Y-107905663D01*
X166943063Y-107677408D01*
X166963659Y-107442000D01*
X166963221Y-107436999D01*
X166943063Y-107206596D01*
X166943063Y-107206592D01*
X166881903Y-106978337D01*
X166782035Y-106764171D01*
X166646495Y-106570599D01*
X166646494Y-106570597D01*
X166479402Y-106403506D01*
X166479401Y-106403505D01*
X166293405Y-106273269D01*
X166249781Y-106218692D01*
X166242588Y-106149193D01*
X166274110Y-106086839D01*
X166293405Y-106070119D01*
X166479082Y-105940105D01*
X166646105Y-105773082D01*
X166781600Y-105579578D01*
X166881429Y-105365492D01*
X166881432Y-105365486D01*
X166938636Y-105152000D01*
X166221347Y-105152000D01*
X166154308Y-105132315D01*
X166108553Y-105079511D01*
X166098609Y-105010353D01*
X166102369Y-104993067D01*
X166108000Y-104973888D01*
X166108000Y-104830111D01*
X166102369Y-104810933D01*
X166102370Y-104741064D01*
X166140145Y-104682286D01*
X166203701Y-104653262D01*
X166221347Y-104652000D01*
X166938636Y-104652000D01*
X166938635Y-104651999D01*
X166881432Y-104438513D01*
X166881429Y-104438507D01*
X166781600Y-104224422D01*
X166781599Y-104224420D01*
X166646113Y-104030926D01*
X166646108Y-104030920D01*
X166479078Y-103863890D01*
X166293405Y-103733879D01*
X166249780Y-103679302D01*
X166242588Y-103609804D01*
X166274110Y-103547449D01*
X166293406Y-103530730D01*
X166479401Y-103400495D01*
X166646495Y-103233401D01*
X166782035Y-103039830D01*
X166881903Y-102825663D01*
X166943063Y-102597408D01*
X166963659Y-102362000D01*
X166943063Y-102126592D01*
X166881903Y-101898337D01*
X166782035Y-101684171D01*
X166778151Y-101678623D01*
X166646494Y-101490597D01*
X166479402Y-101323506D01*
X166479396Y-101323501D01*
X166293842Y-101193575D01*
X166250217Y-101138998D01*
X166243023Y-101069500D01*
X166274546Y-101007145D01*
X166293842Y-100990425D01*
X166316026Y-100974891D01*
X166479401Y-100860495D01*
X166646495Y-100693401D01*
X166782035Y-100499830D01*
X166881903Y-100285663D01*
X166943063Y-100057408D01*
X166963659Y-99822000D01*
X166963221Y-99816999D01*
X166943063Y-99586596D01*
X166943063Y-99586592D01*
X166881903Y-99358337D01*
X166782035Y-99144171D01*
X166646495Y-98950599D01*
X166646494Y-98950597D01*
X166479402Y-98783506D01*
X166479396Y-98783501D01*
X166293842Y-98653575D01*
X166250217Y-98598998D01*
X166243023Y-98529500D01*
X166274546Y-98467145D01*
X166293842Y-98450425D01*
X166409660Y-98369328D01*
X166479401Y-98320495D01*
X166646495Y-98153401D01*
X166782035Y-97959830D01*
X166881903Y-97745663D01*
X166943063Y-97517408D01*
X166963659Y-97282000D01*
X166943063Y-97046592D01*
X166881903Y-96818337D01*
X166782035Y-96604171D01*
X166646495Y-96410599D01*
X166646494Y-96410597D01*
X166479402Y-96243506D01*
X166479395Y-96243501D01*
X166285834Y-96107967D01*
X166285830Y-96107965D01*
X166203243Y-96069454D01*
X166071663Y-96008097D01*
X166071659Y-96008096D01*
X166071655Y-96008094D01*
X165843413Y-95946938D01*
X165843403Y-95946936D01*
X165608001Y-95926341D01*
X165607999Y-95926341D01*
X165372596Y-95946936D01*
X165372586Y-95946938D01*
X165144344Y-96008094D01*
X165144335Y-96008098D01*
X164930171Y-96107964D01*
X164930169Y-96107965D01*
X164736597Y-96243505D01*
X164569505Y-96410597D01*
X164433965Y-96604169D01*
X164433964Y-96604171D01*
X164334098Y-96818335D01*
X164334094Y-96818344D01*
X164272938Y-97046586D01*
X164272936Y-97046596D01*
X164252341Y-97281999D01*
X164252341Y-97282000D01*
X164272936Y-97517403D01*
X164272938Y-97517413D01*
X164334094Y-97745655D01*
X164334096Y-97745659D01*
X164334097Y-97745663D01*
X164420796Y-97931589D01*
X164433965Y-97959830D01*
X164433967Y-97959834D01*
X164569501Y-98153395D01*
X164569506Y-98153402D01*
X164736597Y-98320493D01*
X164736603Y-98320498D01*
X164922158Y-98450425D01*
X164965783Y-98505002D01*
X164972977Y-98574500D01*
X164941454Y-98636855D01*
X164922158Y-98653575D01*
X164736597Y-98783505D01*
X164569505Y-98950597D01*
X164433965Y-99144169D01*
X164433964Y-99144171D01*
X164340401Y-99344816D01*
X164336430Y-99353335D01*
X164334098Y-99358335D01*
X164334094Y-99358344D01*
X164272938Y-99586586D01*
X164272936Y-99586596D01*
X164252341Y-99821999D01*
X164252341Y-99822000D01*
X164272936Y-100057403D01*
X164272938Y-100057413D01*
X164334094Y-100285655D01*
X164334096Y-100285659D01*
X164334097Y-100285663D01*
X164431633Y-100494830D01*
X164433965Y-100499830D01*
X164433967Y-100499834D01*
X164569501Y-100693395D01*
X164569506Y-100693402D01*
X164736597Y-100860493D01*
X164736603Y-100860498D01*
X164922158Y-100990425D01*
X164965783Y-101045002D01*
X164972977Y-101114500D01*
X164941454Y-101176855D01*
X164922158Y-101193575D01*
X164736597Y-101323505D01*
X164569505Y-101490597D01*
X164433965Y-101684169D01*
X164433964Y-101684171D01*
X164334098Y-101898335D01*
X164334094Y-101898344D01*
X164272938Y-102126586D01*
X164272936Y-102126596D01*
X164252341Y-102361999D01*
X164252341Y-102362000D01*
X164272936Y-102597403D01*
X164272938Y-102597413D01*
X164334094Y-102825655D01*
X164334096Y-102825659D01*
X164334097Y-102825663D01*
X164430964Y-103033395D01*
X164433965Y-103039830D01*
X164433967Y-103039834D01*
X164569501Y-103233395D01*
X164569506Y-103233402D01*
X164736597Y-103400493D01*
X164736603Y-103400498D01*
X164922594Y-103530730D01*
X164966219Y-103585307D01*
X164973413Y-103654805D01*
X164941890Y-103717160D01*
X164922595Y-103733880D01*
X164736922Y-103863890D01*
X164736920Y-103863891D01*
X164569891Y-104030920D01*
X164569886Y-104030926D01*
X164434400Y-104224420D01*
X164434399Y-104224422D01*
X164334570Y-104438507D01*
X164334567Y-104438513D01*
X164277364Y-104651999D01*
X164277364Y-104652000D01*
X164994653Y-104652000D01*
X165061692Y-104671685D01*
X165107447Y-104724489D01*
X165117391Y-104793647D01*
X165113631Y-104810933D01*
X165108000Y-104830111D01*
X165108000Y-104973888D01*
X165113631Y-104993067D01*
X165113630Y-105062936D01*
X165075855Y-105121714D01*
X165012299Y-105150738D01*
X164994653Y-105152000D01*
X164277364Y-105152000D01*
X164334567Y-105365486D01*
X164334570Y-105365492D01*
X164434399Y-105579578D01*
X164569894Y-105773082D01*
X164736917Y-105940105D01*
X164922595Y-106070119D01*
X164966219Y-106124696D01*
X164973412Y-106194195D01*
X164941890Y-106256549D01*
X164922595Y-106273269D01*
X164736594Y-106403508D01*
X164569505Y-106570597D01*
X164433965Y-106764169D01*
X164433964Y-106764171D01*
X164340401Y-106964816D01*
X164336430Y-106973335D01*
X164334098Y-106978335D01*
X164334094Y-106978344D01*
X164272938Y-107206586D01*
X164272936Y-107206596D01*
X164252341Y-107441999D01*
X164252341Y-107442000D01*
X164272936Y-107677403D01*
X164272938Y-107677413D01*
X164334094Y-107905655D01*
X164334096Y-107905659D01*
X164334097Y-107905663D01*
X164431633Y-108114830D01*
X164433965Y-108119830D01*
X164433967Y-108119834D01*
X164569501Y-108313395D01*
X164569506Y-108313402D01*
X164736597Y-108480493D01*
X164736603Y-108480498D01*
X164922158Y-108610425D01*
X164965783Y-108665002D01*
X164972977Y-108734500D01*
X164941454Y-108796855D01*
X164922158Y-108813575D01*
X164736597Y-108943505D01*
X164569505Y-109110597D01*
X164433965Y-109304169D01*
X164433964Y-109304171D01*
X164340401Y-109504816D01*
X164336430Y-109513335D01*
X164334098Y-109518335D01*
X164334094Y-109518344D01*
X164272938Y-109746586D01*
X164272936Y-109746596D01*
X164252341Y-109981999D01*
X164252341Y-109982000D01*
X164272936Y-110217403D01*
X164272938Y-110217413D01*
X164334094Y-110445655D01*
X164334096Y-110445659D01*
X164334097Y-110445663D01*
X164431633Y-110654830D01*
X164433965Y-110659830D01*
X164433967Y-110659834D01*
X164569501Y-110853395D01*
X164569506Y-110853402D01*
X164736597Y-111020493D01*
X164736603Y-111020498D01*
X164922158Y-111150425D01*
X164965783Y-111205002D01*
X164972977Y-111274500D01*
X164941454Y-111336855D01*
X164922158Y-111353575D01*
X164736597Y-111483505D01*
X164569505Y-111650597D01*
X164433965Y-111844169D01*
X164433964Y-111844171D01*
X164340401Y-112044816D01*
X164336430Y-112053335D01*
X164334098Y-112058335D01*
X164334094Y-112058344D01*
X164272938Y-112286586D01*
X164272936Y-112286596D01*
X164252341Y-112521999D01*
X164252341Y-112522000D01*
X164272936Y-112757403D01*
X164272938Y-112757413D01*
X164334094Y-112985655D01*
X164334096Y-112985659D01*
X164334097Y-112985663D01*
X164431633Y-113194830D01*
X164433965Y-113199830D01*
X164433967Y-113199834D01*
X164569501Y-113393395D01*
X164569506Y-113393402D01*
X164736597Y-113560493D01*
X164736603Y-113560498D01*
X164922158Y-113690425D01*
X164965783Y-113745002D01*
X164972977Y-113814500D01*
X164941454Y-113876855D01*
X164922158Y-113893575D01*
X164736597Y-114023505D01*
X164569505Y-114190597D01*
X164433965Y-114384169D01*
X164433964Y-114384171D01*
X164340401Y-114584816D01*
X164336430Y-114593335D01*
X164334098Y-114598335D01*
X164334094Y-114598344D01*
X164272938Y-114826586D01*
X164272936Y-114826596D01*
X164252341Y-115061999D01*
X164252341Y-115062000D01*
X164272936Y-115297403D01*
X164272938Y-115297413D01*
X164334094Y-115525655D01*
X164334096Y-115525659D01*
X164334097Y-115525663D01*
X164431633Y-115734830D01*
X164433965Y-115739830D01*
X164433967Y-115739834D01*
X164569501Y-115933395D01*
X164569506Y-115933402D01*
X164736597Y-116100493D01*
X164736603Y-116100498D01*
X164922158Y-116230425D01*
X164965783Y-116285002D01*
X164972977Y-116354500D01*
X164941454Y-116416855D01*
X164922158Y-116433575D01*
X164736597Y-116563505D01*
X164569505Y-116730597D01*
X164433965Y-116924169D01*
X164433964Y-116924171D01*
X164358067Y-117086934D01*
X164336430Y-117133335D01*
X164334098Y-117138335D01*
X164334094Y-117138344D01*
X164272938Y-117366586D01*
X164272936Y-117366596D01*
X164252341Y-117601999D01*
X164252341Y-117602000D01*
X164272936Y-117837403D01*
X164272938Y-117837413D01*
X164334094Y-118065655D01*
X164334096Y-118065659D01*
X164334097Y-118065663D01*
X164431633Y-118274830D01*
X164433965Y-118279830D01*
X164433967Y-118279834D01*
X164569501Y-118473395D01*
X164569506Y-118473402D01*
X164736597Y-118640493D01*
X164736603Y-118640498D01*
X164922158Y-118770425D01*
X164965783Y-118825002D01*
X164972977Y-118894500D01*
X164941454Y-118956855D01*
X164922158Y-118973575D01*
X164736597Y-119103505D01*
X164569505Y-119270597D01*
X164433965Y-119464169D01*
X164433964Y-119464171D01*
X164376322Y-119587785D01*
X164336430Y-119673335D01*
X164334098Y-119678335D01*
X164334094Y-119678344D01*
X164272938Y-119906586D01*
X164272936Y-119906596D01*
X164252341Y-120141999D01*
X164252341Y-120142000D01*
X164272936Y-120377403D01*
X164272938Y-120377413D01*
X164334094Y-120605655D01*
X164334096Y-120605659D01*
X164334097Y-120605663D01*
X164400056Y-120747112D01*
X164433965Y-120819830D01*
X164433967Y-120819834D01*
X164569501Y-121013395D01*
X164569506Y-121013402D01*
X164736597Y-121180493D01*
X164736603Y-121180498D01*
X164922158Y-121310425D01*
X164965783Y-121365002D01*
X164972977Y-121434500D01*
X164941454Y-121496855D01*
X164922158Y-121513575D01*
X164736597Y-121643505D01*
X164569505Y-121810597D01*
X164433965Y-122004169D01*
X164433964Y-122004171D01*
X164392595Y-122092888D01*
X164336430Y-122213335D01*
X164334098Y-122218335D01*
X164334094Y-122218344D01*
X164272938Y-122446586D01*
X164272936Y-122446596D01*
X164252341Y-122681999D01*
X164252341Y-122682000D01*
X150798588Y-122682000D01*
X151532770Y-121947819D01*
X151594094Y-121914334D01*
X151620452Y-121911500D01*
X151679644Y-121911500D01*
X151679646Y-121911500D01*
X151864803Y-121872144D01*
X152037730Y-121795151D01*
X152190871Y-121683888D01*
X152317533Y-121543216D01*
X152412179Y-121379284D01*
X152470674Y-121199256D01*
X152490460Y-121011000D01*
X152470674Y-120822744D01*
X152412179Y-120642716D01*
X152317533Y-120478784D01*
X152190871Y-120338112D01*
X152126923Y-120291651D01*
X152037734Y-120226851D01*
X152037729Y-120226848D01*
X151864807Y-120149857D01*
X151864802Y-120149855D01*
X151719001Y-120118865D01*
X151679646Y-120110500D01*
X151490354Y-120110500D01*
X151457897Y-120117398D01*
X151305197Y-120149855D01*
X151305192Y-120149857D01*
X151132270Y-120226848D01*
X151132265Y-120226851D01*
X150979129Y-120338111D01*
X150852466Y-120478785D01*
X150757821Y-120642715D01*
X150757818Y-120642722D01*
X150699327Y-120822740D01*
X150699326Y-120822744D01*
X150683351Y-120974737D01*
X150681679Y-120990649D01*
X150655094Y-121055263D01*
X150646039Y-121065368D01*
X149696228Y-122015181D01*
X149634905Y-122048666D01*
X149608547Y-122051500D01*
X134879227Y-122051500D01*
X134812188Y-122031815D01*
X134777652Y-121998623D01*
X134642494Y-121805597D01*
X134475402Y-121638506D01*
X134475396Y-121638501D01*
X134289842Y-121508575D01*
X134246217Y-121453998D01*
X134239023Y-121384500D01*
X134270546Y-121322145D01*
X134289842Y-121305425D01*
X134395075Y-121231740D01*
X134475401Y-121175495D01*
X134642495Y-121008401D01*
X134778035Y-120814830D01*
X134877903Y-120600663D01*
X134939063Y-120372408D01*
X134959659Y-120137000D01*
X134959659Y-120136999D01*
X134959659Y-120136610D01*
X134959707Y-120136444D01*
X134960131Y-120131606D01*
X134961103Y-120131691D01*
X134979344Y-120069571D01*
X135032148Y-120023816D01*
X135101306Y-120013872D01*
X135164862Y-120042897D01*
X135171314Y-120048904D01*
X135188042Y-120065632D01*
X135221524Y-120126955D01*
X135223678Y-120140347D01*
X135224678Y-120149857D01*
X135241326Y-120308256D01*
X135241327Y-120308259D01*
X135299818Y-120488277D01*
X135299821Y-120488284D01*
X135394467Y-120652216D01*
X135479911Y-120747111D01*
X135521129Y-120792888D01*
X135674265Y-120904148D01*
X135674270Y-120904151D01*
X135847192Y-120981142D01*
X135847197Y-120981144D01*
X136032354Y-121020500D01*
X136032355Y-121020500D01*
X136221644Y-121020500D01*
X136221646Y-121020500D01*
X136406803Y-120981144D01*
X136579730Y-120904151D01*
X136732871Y-120792888D01*
X136859533Y-120652216D01*
X136954179Y-120488284D01*
X137012674Y-120308256D01*
X137032460Y-120120000D01*
X137012674Y-119931744D01*
X136954179Y-119751716D01*
X136859533Y-119587784D01*
X136732871Y-119447112D01*
X136732870Y-119447111D01*
X136579734Y-119335851D01*
X136579729Y-119335848D01*
X136406807Y-119258857D01*
X136406802Y-119258855D01*
X136261001Y-119227865D01*
X136221646Y-119219500D01*
X136221645Y-119219500D01*
X136162452Y-119219500D01*
X136095413Y-119199815D01*
X136074771Y-119183181D01*
X135441119Y-118549528D01*
X135407634Y-118488205D01*
X135404800Y-118461847D01*
X135404800Y-117667844D01*
X135406997Y-117644606D01*
X135408527Y-117636588D01*
X135404921Y-117579275D01*
X135404800Y-117575403D01*
X135404800Y-117557650D01*
X135402570Y-117540002D01*
X135402210Y-117536191D01*
X135398604Y-117478862D01*
X135396079Y-117471092D01*
X135390987Y-117448314D01*
X135389964Y-117440208D01*
X135368820Y-117386806D01*
X135367511Y-117383170D01*
X135349767Y-117328559D01*
X135345389Y-117321661D01*
X135334795Y-117300868D01*
X135331786Y-117293268D01*
X135298036Y-117246815D01*
X135295845Y-117243592D01*
X135293238Y-117239484D01*
X135265086Y-117195123D01*
X135259133Y-117189533D01*
X135243698Y-117172025D01*
X135238894Y-117165413D01*
X135238891Y-117165411D01*
X135238891Y-117165410D01*
X135194661Y-117128820D01*
X135191738Y-117126243D01*
X135149885Y-117086940D01*
X135149877Y-117086934D01*
X135142715Y-117082997D01*
X135123414Y-117069880D01*
X135117124Y-117064676D01*
X135065178Y-117040232D01*
X135061717Y-117038469D01*
X135011392Y-117010803D01*
X135011389Y-117010802D01*
X135011385Y-117010800D01*
X135003474Y-117008769D01*
X134981522Y-117000866D01*
X134974125Y-116997385D01*
X134974121Y-116997384D01*
X134917744Y-116986630D01*
X134913944Y-116985780D01*
X134850765Y-116969560D01*
X134851549Y-116966505D01*
X134800846Y-116944350D01*
X134778923Y-116920438D01*
X134642494Y-116725597D01*
X134475402Y-116558506D01*
X134475396Y-116558501D01*
X134289842Y-116428575D01*
X134246217Y-116373998D01*
X134239023Y-116304500D01*
X134270546Y-116242145D01*
X134289842Y-116225425D01*
X134312026Y-116209891D01*
X134475401Y-116095495D01*
X134642495Y-115928401D01*
X134778035Y-115734830D01*
X134877903Y-115520663D01*
X134939063Y-115292408D01*
X134959659Y-115057000D01*
X134939063Y-114821592D01*
X134877903Y-114593337D01*
X134778035Y-114379171D01*
X134642495Y-114185599D01*
X134642494Y-114185597D01*
X134475402Y-114018506D01*
X134475396Y-114018501D01*
X134289842Y-113888575D01*
X134246217Y-113833998D01*
X134239023Y-113764500D01*
X134270546Y-113702145D01*
X134289842Y-113685425D01*
X134312026Y-113669891D01*
X134475401Y-113555495D01*
X134642495Y-113388401D01*
X134778035Y-113194830D01*
X134877903Y-112980663D01*
X134939063Y-112752408D01*
X134959659Y-112517000D01*
X134939063Y-112281592D01*
X134877903Y-112053337D01*
X134778035Y-111839171D01*
X134642495Y-111645599D01*
X134642494Y-111645597D01*
X134475402Y-111478506D01*
X134475396Y-111478501D01*
X134289842Y-111348575D01*
X134246217Y-111293998D01*
X134239023Y-111224500D01*
X134270546Y-111162145D01*
X134289842Y-111145425D01*
X134312026Y-111129891D01*
X134475401Y-111015495D01*
X134642495Y-110848401D01*
X134778035Y-110654830D01*
X134877903Y-110440663D01*
X134939063Y-110212408D01*
X134959659Y-109977000D01*
X134939063Y-109741592D01*
X134877903Y-109513337D01*
X134778035Y-109299171D01*
X134642495Y-109105599D01*
X134642494Y-109105597D01*
X134475402Y-108938506D01*
X134475396Y-108938501D01*
X134289842Y-108808575D01*
X134246217Y-108753998D01*
X134239023Y-108684500D01*
X134270546Y-108622145D01*
X134289842Y-108605425D01*
X134312026Y-108589891D01*
X134475401Y-108475495D01*
X134642495Y-108308401D01*
X134778035Y-108114830D01*
X134877903Y-107900663D01*
X134939063Y-107672408D01*
X134959659Y-107437000D01*
X134939063Y-107201592D01*
X134877903Y-106973337D01*
X134778035Y-106759171D01*
X134642495Y-106565599D01*
X134642494Y-106565597D01*
X134475402Y-106398506D01*
X134475396Y-106398501D01*
X134289842Y-106268575D01*
X134246217Y-106213998D01*
X134239023Y-106144500D01*
X134270546Y-106082145D01*
X134289842Y-106065425D01*
X134468817Y-105940105D01*
X134475401Y-105935495D01*
X134642495Y-105768401D01*
X134778035Y-105574830D01*
X134877903Y-105360663D01*
X134939063Y-105132408D01*
X134959659Y-104897000D01*
X134939063Y-104661592D01*
X134877903Y-104433337D01*
X134875837Y-104428906D01*
X134865344Y-104359829D01*
X134893863Y-104296045D01*
X134952339Y-104257804D01*
X134988218Y-104252500D01*
X138314248Y-104252500D01*
X138381287Y-104272185D01*
X138401929Y-104288819D01*
X153566238Y-119453129D01*
X153599723Y-119514452D01*
X153601878Y-119527848D01*
X153608178Y-119587784D01*
X153619526Y-119695756D01*
X153619527Y-119695759D01*
X153678018Y-119875777D01*
X153678021Y-119875784D01*
X153772667Y-120039716D01*
X153864764Y-120142000D01*
X153899329Y-120180388D01*
X154052465Y-120291648D01*
X154052466Y-120291648D01*
X154052470Y-120291651D01*
X154190829Y-120353253D01*
X154244066Y-120398503D01*
X154264387Y-120465352D01*
X154245342Y-120532576D01*
X154192975Y-120578831D01*
X154190830Y-120579811D01*
X154064967Y-120635850D01*
X154064965Y-120635851D01*
X153911829Y-120747111D01*
X153785166Y-120887785D01*
X153690521Y-121051715D01*
X153690518Y-121051722D01*
X153642582Y-121199256D01*
X153632026Y-121231744D01*
X153612240Y-121420000D01*
X153632026Y-121608256D01*
X153632027Y-121608259D01*
X153690518Y-121788277D01*
X153690521Y-121788284D01*
X153785167Y-121952216D01*
X153872011Y-122048666D01*
X153911829Y-122092888D01*
X154064965Y-122204148D01*
X154064970Y-122204151D01*
X154237892Y-122281142D01*
X154237897Y-122281144D01*
X154423054Y-122320500D01*
X154423055Y-122320500D01*
X154612344Y-122320500D01*
X154612346Y-122320500D01*
X154797503Y-122281144D01*
X154970430Y-122204151D01*
X155123571Y-122092888D01*
X155250233Y-121952216D01*
X155344879Y-121788284D01*
X155403374Y-121608256D01*
X155421021Y-121440344D01*
X155447604Y-121375734D01*
X155456651Y-121365638D01*
X155667688Y-121154601D01*
X155679942Y-121144786D01*
X155679759Y-121144564D01*
X155685766Y-121139592D01*
X155685777Y-121139586D01*
X155716675Y-121106682D01*
X155733127Y-121089164D01*
X155743571Y-121078718D01*
X155754020Y-121068271D01*
X155758279Y-121062778D01*
X155762052Y-121058361D01*
X155793962Y-121024382D01*
X155803613Y-121006824D01*
X155814296Y-120990561D01*
X155826573Y-120974736D01*
X155845085Y-120931953D01*
X155847638Y-120926741D01*
X155870097Y-120885892D01*
X155875080Y-120866480D01*
X155881381Y-120848080D01*
X155889337Y-120829696D01*
X155896629Y-120783652D01*
X155897806Y-120777971D01*
X155909400Y-120732819D01*
X155909400Y-120712782D01*
X155910927Y-120693382D01*
X155914060Y-120673604D01*
X155909675Y-120627215D01*
X155909400Y-120621377D01*
X155909400Y-117459139D01*
X155911124Y-117443526D01*
X155910838Y-117443499D01*
X155911572Y-117435735D01*
X155909400Y-117366592D01*
X155909400Y-117337051D01*
X155909400Y-117337050D01*
X155908529Y-117330159D01*
X155908072Y-117324345D01*
X155906609Y-117277772D01*
X155901022Y-117258544D01*
X155897074Y-117239484D01*
X155894563Y-117219604D01*
X155877412Y-117176287D01*
X155875519Y-117170758D01*
X155862518Y-117126009D01*
X155862516Y-117126006D01*
X155852323Y-117108771D01*
X155843761Y-117091294D01*
X155836387Y-117072670D01*
X155830579Y-117064676D01*
X155808979Y-117034945D01*
X155805788Y-117030086D01*
X155794384Y-117010803D01*
X155782070Y-116989980D01*
X155782068Y-116989978D01*
X155782065Y-116989974D01*
X155767906Y-116975815D01*
X155755268Y-116961019D01*
X155743494Y-116944813D01*
X155742934Y-116944350D01*
X155707588Y-116915109D01*
X155703276Y-116911186D01*
X135685303Y-96893212D01*
X135675480Y-96880950D01*
X135675259Y-96881134D01*
X135670286Y-96875123D01*
X135670285Y-96875122D01*
X135619864Y-96827773D01*
X135609419Y-96817328D01*
X135598975Y-96806883D01*
X135593486Y-96802625D01*
X135589061Y-96798847D01*
X135555082Y-96766938D01*
X135555080Y-96766936D01*
X135555077Y-96766935D01*
X135537529Y-96757288D01*
X135521263Y-96746604D01*
X135505433Y-96734325D01*
X135462668Y-96715818D01*
X135457422Y-96713248D01*
X135416593Y-96690803D01*
X135416592Y-96690802D01*
X135397193Y-96685822D01*
X135378781Y-96679518D01*
X135360398Y-96671562D01*
X135360392Y-96671560D01*
X135314374Y-96664272D01*
X135308652Y-96663087D01*
X135263521Y-96651500D01*
X135263519Y-96651500D01*
X135243484Y-96651500D01*
X135224086Y-96649973D01*
X135216662Y-96648797D01*
X135204305Y-96646840D01*
X135204304Y-96646840D01*
X135157916Y-96651225D01*
X135152078Y-96651500D01*
X135078499Y-96651500D01*
X135011460Y-96631815D01*
X134965705Y-96579011D01*
X134954499Y-96527500D01*
X134954499Y-96379129D01*
X134954498Y-96379123D01*
X134954497Y-96379116D01*
X134948091Y-96319517D01*
X134919740Y-96243505D01*
X134897797Y-96184671D01*
X134897793Y-96184664D01*
X134811547Y-96069455D01*
X134811544Y-96069452D01*
X134696335Y-95983206D01*
X134696328Y-95983202D01*
X134561482Y-95932908D01*
X134561483Y-95932908D01*
X134501883Y-95926501D01*
X134501881Y-95926500D01*
X134501873Y-95926500D01*
X134501864Y-95926500D01*
X132706129Y-95926500D01*
X132706123Y-95926501D01*
X132646516Y-95932908D01*
X132511671Y-95983202D01*
X132511664Y-95983206D01*
X132396455Y-96069452D01*
X132396452Y-96069455D01*
X132310206Y-96184664D01*
X132310202Y-96184671D01*
X132259908Y-96319517D01*
X132253501Y-96379116D01*
X132253501Y-96379123D01*
X132253500Y-96379135D01*
X132253500Y-98174870D01*
X132253501Y-98174876D01*
X132259908Y-98234483D01*
X132310202Y-98369328D01*
X132310206Y-98369335D01*
X132396452Y-98484544D01*
X132396455Y-98484547D01*
X132511664Y-98570793D01*
X132511671Y-98570797D01*
X132643081Y-98619810D01*
X132699015Y-98661681D01*
X132723432Y-98727145D01*
X132708580Y-98795418D01*
X132687430Y-98823673D01*
X132565503Y-98945600D01*
X132429965Y-99139169D01*
X132429964Y-99139171D01*
X132330098Y-99353335D01*
X132330094Y-99353344D01*
X132268938Y-99581586D01*
X132268936Y-99581596D01*
X132248341Y-99816999D01*
X132248341Y-99817000D01*
X132268936Y-100052403D01*
X132268938Y-100052413D01*
X132330094Y-100280655D01*
X132330096Y-100280659D01*
X132330097Y-100280663D01*
X132429964Y-100494830D01*
X132429965Y-100494830D01*
X132429967Y-100494834D01*
X132543097Y-100656400D01*
X132565424Y-100722606D01*
X132548414Y-100790373D01*
X132529203Y-100815204D01*
X132027608Y-101316799D01*
X132015351Y-101326620D01*
X132015534Y-101326841D01*
X132009523Y-101331813D01*
X131962172Y-101382236D01*
X131941289Y-101403119D01*
X131941277Y-101403132D01*
X131937021Y-101408617D01*
X131933237Y-101413047D01*
X131901337Y-101447018D01*
X131901336Y-101447020D01*
X131891684Y-101464576D01*
X131881010Y-101480826D01*
X131868729Y-101496661D01*
X131868724Y-101496668D01*
X131850215Y-101539438D01*
X131847645Y-101544684D01*
X131825203Y-101585506D01*
X131820222Y-101604907D01*
X131813921Y-101623310D01*
X131805962Y-101641702D01*
X131805961Y-101641705D01*
X131798671Y-101687727D01*
X131797487Y-101693446D01*
X131785901Y-101738572D01*
X131785900Y-101738582D01*
X131785900Y-101758616D01*
X131784373Y-101778015D01*
X131781240Y-101797794D01*
X131781240Y-101797795D01*
X130302000Y-101797795D01*
X130302000Y-94612000D01*
X130321685Y-94544961D01*
X130374489Y-94499206D01*
X130426000Y-94488000D01*
X169294000Y-94488000D01*
X169361039Y-94507685D01*
G37*
G04 #@! TD.AperFunction*
M02*
