M48
; DRILL file {KiCad 7.0.7} date Thu Sep  7 14:52:30 2023
; FORMAT={-:-/ absolute / metric / decimal}
; #@! TF.CreationDate,2023-09-07T14:52:30+08:00
; #@! TF.GenerationSoftware,Kicad,Pcbnew,7.0.7
; #@! TF.FileFunction,MixedPlating,1,2
FMAT,2
METRIC
; #@! TA.AperFunction,Plated,PTH,ViaDrill
T1C0.400
; #@! TA.AperFunction,Plated,PTH,ComponentDrill
T2C1.000
%
G90
G05
T1
X136.127Y-120.12
X151.585Y-121.011
X154.505Y-119.507
X154.518Y-121.42
X154.519Y-117.712
T2
X133.604Y-97.277
X133.604Y-99.817
X133.604Y-102.357
X133.604Y-104.897
X133.604Y-107.437
X133.604Y-109.977
X133.604Y-112.517
X133.604Y-115.057
X133.604Y-117.597
X133.604Y-120.137
X133.604Y-122.677
X133.604Y-125.217
X165.608Y-97.282
X165.608Y-99.822
X165.608Y-102.362
X165.608Y-104.902
X165.608Y-107.442
X165.608Y-109.982
X165.608Y-112.522
X165.608Y-115.062
X165.608Y-117.602
X165.608Y-120.142
X165.608Y-122.682
X165.608Y-125.222
T0
M30
