G04 #@! TF.GenerationSoftware,KiCad,Pcbnew,7.0.7*
G04 #@! TF.CreationDate,2023-09-07T14:52:05+08:00*
G04 #@! TF.ProjectId,rs485,72733438-352e-46b6-9963-61645f706362,rev?*
G04 #@! TF.SameCoordinates,Original*
G04 #@! TF.FileFunction,Soldermask,Top*
G04 #@! TF.FilePolarity,Negative*
%FSLAX46Y46*%
G04 Gerber Fmt 4.6, Leading zero omitted, Abs format (unit mm)*
G04 Created by KiCad (PCBNEW 7.0.7) date 2023-09-07 14:52:05*
%MOMM*%
%LPD*%
G01*
G04 APERTURE LIST*
G04 Aperture macros list*
%AMRoundRect*
0 Rectangle with rounded corners*
0 $1 Rounding radius*
0 $2 $3 $4 $5 $6 $7 $8 $9 X,Y pos of 4 corners*
0 Add a 4 corners polygon primitive as box body*
4,1,4,$2,$3,$4,$5,$6,$7,$8,$9,$2,$3,0*
0 Add four circle primitives for the rounded corners*
1,1,$1+$1,$2,$3*
1,1,$1+$1,$4,$5*
1,1,$1+$1,$6,$7*
1,1,$1+$1,$8,$9*
0 Add four rect primitives between the rounded corners*
20,1,$1+$1,$2,$3,$4,$5,0*
20,1,$1+$1,$4,$5,$6,$7,0*
20,1,$1+$1,$6,$7,$8,$9,0*
20,1,$1+$1,$8,$9,$2,$3,0*%
G04 Aperture macros list end*
%ADD10R,1.700000X1.700000*%
%ADD11O,1.700000X1.700000*%
%ADD12RoundRect,0.100000X0.637500X0.100000X-0.637500X0.100000X-0.637500X-0.100000X0.637500X-0.100000X0*%
%ADD13RoundRect,0.141900X-0.945100X-0.245100X0.945100X-0.245100X0.945100X0.245100X-0.945100X0.245100X0*%
G04 APERTURE END LIST*
D10*
X133604000Y-97277000D03*
D11*
X133604000Y-99817000D03*
X133604000Y-102357000D03*
X133604000Y-104897000D03*
X133604000Y-107437000D03*
X133604000Y-109977000D03*
X133604000Y-112517000D03*
X133604000Y-115057000D03*
X133604000Y-117597000D03*
X133604000Y-120137000D03*
X133604000Y-122677000D03*
X133604000Y-125217000D03*
D12*
X153162000Y-122070000D03*
X153162000Y-121420000D03*
X153162000Y-120770000D03*
X153162000Y-120120000D03*
X153162000Y-119470000D03*
X153162000Y-118820000D03*
X153162000Y-118170000D03*
X153162000Y-117520000D03*
X153162000Y-116870000D03*
X153162000Y-116220000D03*
X153162000Y-115570000D03*
X153162000Y-114920000D03*
X147437000Y-114920000D03*
X147437000Y-115570000D03*
X147437000Y-116220000D03*
X147437000Y-116870000D03*
X147437000Y-117520000D03*
X147437000Y-118170000D03*
X147437000Y-118820000D03*
X147437000Y-119470000D03*
X147437000Y-120120000D03*
X147437000Y-120770000D03*
X147437000Y-121420000D03*
X147437000Y-122070000D03*
D10*
X165608000Y-125222000D03*
D11*
X165608000Y-122682000D03*
X165608000Y-120142000D03*
X165608000Y-117602000D03*
X165608000Y-115062000D03*
X165608000Y-112522000D03*
X165608000Y-109982000D03*
X165608000Y-107442000D03*
X165608000Y-104902000D03*
X165608000Y-102362000D03*
X165608000Y-99822000D03*
X165608000Y-97282000D03*
D13*
X148147000Y-105791000D03*
X148147000Y-107061000D03*
X148147000Y-108331000D03*
X148147000Y-109601000D03*
X153097000Y-109601000D03*
X153097000Y-108331000D03*
X153097000Y-107061000D03*
X153097000Y-105791000D03*
M02*
