G04 #@! TF.GenerationSoftware,KiCad,Pcbnew,7.0.7*
G04 #@! TF.CreationDate,2023-09-07T14:52:05+08:00*
G04 #@! TF.ProjectId,rs485,72733438-352e-46b6-9963-61645f706362,rev?*
G04 #@! TF.SameCoordinates,Original*
G04 #@! TF.FileFunction,Legend,Top*
G04 #@! TF.FilePolarity,Positive*
%FSLAX46Y46*%
G04 Gerber Fmt 4.6, Leading zero omitted, Abs format (unit mm)*
G04 Created by KiCad (PCBNEW 7.0.7) date 2023-09-07 14:52:05*
%MOMM*%
%LPD*%
G01*
G04 APERTURE LIST*
G04 Aperture macros list*
%AMRoundRect*
0 Rectangle with rounded corners*
0 $1 Rounding radius*
0 $2 $3 $4 $5 $6 $7 $8 $9 X,Y pos of 4 corners*
0 Add a 4 corners polygon primitive as box body*
4,1,4,$2,$3,$4,$5,$6,$7,$8,$9,$2,$3,0*
0 Add four circle primitives for the rounded corners*
1,1,$1+$1,$2,$3*
1,1,$1+$1,$4,$5*
1,1,$1+$1,$6,$7*
1,1,$1+$1,$8,$9*
0 Add four rect primitives between the rounded corners*
20,1,$1+$1,$2,$3,$4,$5,0*
20,1,$1+$1,$4,$5,$6,$7,0*
20,1,$1+$1,$6,$7,$8,$9,0*
20,1,$1+$1,$8,$9,$2,$3,0*%
G04 Aperture macros list end*
%ADD10C,0.150000*%
%ADD11C,0.120000*%
%ADD12C,0.127000*%
%ADD13C,0.200000*%
%ADD14R,1.700000X1.700000*%
%ADD15O,1.700000X1.700000*%
%ADD16RoundRect,0.100000X0.637500X0.100000X-0.637500X0.100000X-0.637500X-0.100000X0.637500X-0.100000X0*%
%ADD17RoundRect,0.141900X-0.945100X-0.245100X0.945100X-0.245100X0.945100X0.245100X-0.945100X0.245100X0*%
G04 APERTURE END LIST*
D10*
X160467922Y-96659819D02*
X160801255Y-97659819D01*
X160801255Y-97659819D02*
X161134588Y-96659819D01*
X162039350Y-97564580D02*
X161991731Y-97612200D01*
X161991731Y-97612200D02*
X161848874Y-97659819D01*
X161848874Y-97659819D02*
X161753636Y-97659819D01*
X161753636Y-97659819D02*
X161610779Y-97612200D01*
X161610779Y-97612200D02*
X161515541Y-97516961D01*
X161515541Y-97516961D02*
X161467922Y-97421723D01*
X161467922Y-97421723D02*
X161420303Y-97231247D01*
X161420303Y-97231247D02*
X161420303Y-97088390D01*
X161420303Y-97088390D02*
X161467922Y-96897914D01*
X161467922Y-96897914D02*
X161515541Y-96802676D01*
X161515541Y-96802676D02*
X161610779Y-96707438D01*
X161610779Y-96707438D02*
X161753636Y-96659819D01*
X161753636Y-96659819D02*
X161848874Y-96659819D01*
X161848874Y-96659819D02*
X161991731Y-96707438D01*
X161991731Y-96707438D02*
X162039350Y-96755057D01*
X163039350Y-97564580D02*
X162991731Y-97612200D01*
X162991731Y-97612200D02*
X162848874Y-97659819D01*
X162848874Y-97659819D02*
X162753636Y-97659819D01*
X162753636Y-97659819D02*
X162610779Y-97612200D01*
X162610779Y-97612200D02*
X162515541Y-97516961D01*
X162515541Y-97516961D02*
X162467922Y-97421723D01*
X162467922Y-97421723D02*
X162420303Y-97231247D01*
X162420303Y-97231247D02*
X162420303Y-97088390D01*
X162420303Y-97088390D02*
X162467922Y-96897914D01*
X162467922Y-96897914D02*
X162515541Y-96802676D01*
X162515541Y-96802676D02*
X162610779Y-96707438D01*
X162610779Y-96707438D02*
X162753636Y-96659819D01*
X162753636Y-96659819D02*
X162848874Y-96659819D01*
X162848874Y-96659819D02*
X162991731Y-96707438D01*
X162991731Y-96707438D02*
X163039350Y-96755057D01*
X160563160Y-99914104D02*
X161039350Y-99914104D01*
X160467922Y-100199819D02*
X160801255Y-99199819D01*
X160801255Y-99199819D02*
X161134588Y-100199819D01*
X160944112Y-102216009D02*
X161086969Y-102263628D01*
X161086969Y-102263628D02*
X161134588Y-102311247D01*
X161134588Y-102311247D02*
X161182207Y-102406485D01*
X161182207Y-102406485D02*
X161182207Y-102549342D01*
X161182207Y-102549342D02*
X161134588Y-102644580D01*
X161134588Y-102644580D02*
X161086969Y-102692200D01*
X161086969Y-102692200D02*
X160991731Y-102739819D01*
X160991731Y-102739819D02*
X160610779Y-102739819D01*
X160610779Y-102739819D02*
X160610779Y-101739819D01*
X160610779Y-101739819D02*
X160944112Y-101739819D01*
X160944112Y-101739819D02*
X161039350Y-101787438D01*
X161039350Y-101787438D02*
X161086969Y-101835057D01*
X161086969Y-101835057D02*
X161134588Y-101930295D01*
X161134588Y-101930295D02*
X161134588Y-102025533D01*
X161134588Y-102025533D02*
X161086969Y-102120771D01*
X161086969Y-102120771D02*
X161039350Y-102168390D01*
X161039350Y-102168390D02*
X160944112Y-102216009D01*
X160944112Y-102216009D02*
X160610779Y-102216009D01*
X161134588Y-104327438D02*
X161039350Y-104279819D01*
X161039350Y-104279819D02*
X160896493Y-104279819D01*
X160896493Y-104279819D02*
X160753636Y-104327438D01*
X160753636Y-104327438D02*
X160658398Y-104422676D01*
X160658398Y-104422676D02*
X160610779Y-104517914D01*
X160610779Y-104517914D02*
X160563160Y-104708390D01*
X160563160Y-104708390D02*
X160563160Y-104851247D01*
X160563160Y-104851247D02*
X160610779Y-105041723D01*
X160610779Y-105041723D02*
X160658398Y-105136961D01*
X160658398Y-105136961D02*
X160753636Y-105232200D01*
X160753636Y-105232200D02*
X160896493Y-105279819D01*
X160896493Y-105279819D02*
X160991731Y-105279819D01*
X160991731Y-105279819D02*
X161134588Y-105232200D01*
X161134588Y-105232200D02*
X161182207Y-105184580D01*
X161182207Y-105184580D02*
X161182207Y-104851247D01*
X161182207Y-104851247D02*
X160991731Y-104851247D01*
X161610779Y-105279819D02*
X161610779Y-104279819D01*
X161610779Y-104279819D02*
X162182207Y-105279819D01*
X162182207Y-105279819D02*
X162182207Y-104279819D01*
X162658398Y-105279819D02*
X162658398Y-104279819D01*
X162658398Y-104279819D02*
X162896493Y-104279819D01*
X162896493Y-104279819D02*
X163039350Y-104327438D01*
X163039350Y-104327438D02*
X163134588Y-104422676D01*
X163134588Y-104422676D02*
X163182207Y-104517914D01*
X163182207Y-104517914D02*
X163229826Y-104708390D01*
X163229826Y-104708390D02*
X163229826Y-104851247D01*
X163229826Y-104851247D02*
X163182207Y-105041723D01*
X163182207Y-105041723D02*
X163134588Y-105136961D01*
X163134588Y-105136961D02*
X163039350Y-105232200D01*
X163039350Y-105232200D02*
X162896493Y-105279819D01*
X162896493Y-105279819D02*
X162658398Y-105279819D01*
X161134588Y-107819819D02*
X160563160Y-107819819D01*
X160848874Y-107819819D02*
X160848874Y-106819819D01*
X160848874Y-106819819D02*
X160753636Y-106962676D01*
X160753636Y-106962676D02*
X160658398Y-107057914D01*
X160658398Y-107057914D02*
X160563160Y-107105533D01*
X161896493Y-107296009D02*
X162039350Y-107343628D01*
X162039350Y-107343628D02*
X162086969Y-107391247D01*
X162086969Y-107391247D02*
X162134588Y-107486485D01*
X162134588Y-107486485D02*
X162134588Y-107629342D01*
X162134588Y-107629342D02*
X162086969Y-107724580D01*
X162086969Y-107724580D02*
X162039350Y-107772200D01*
X162039350Y-107772200D02*
X161944112Y-107819819D01*
X161944112Y-107819819D02*
X161563160Y-107819819D01*
X161563160Y-107819819D02*
X161563160Y-106819819D01*
X161563160Y-106819819D02*
X161896493Y-106819819D01*
X161896493Y-106819819D02*
X161991731Y-106867438D01*
X161991731Y-106867438D02*
X162039350Y-106915057D01*
X162039350Y-106915057D02*
X162086969Y-107010295D01*
X162086969Y-107010295D02*
X162086969Y-107105533D01*
X162086969Y-107105533D02*
X162039350Y-107200771D01*
X162039350Y-107200771D02*
X161991731Y-107248390D01*
X161991731Y-107248390D02*
X161896493Y-107296009D01*
X161896493Y-107296009D02*
X161563160Y-107296009D01*
X162467922Y-106819819D02*
X163086969Y-106819819D01*
X163086969Y-106819819D02*
X162753636Y-107200771D01*
X162753636Y-107200771D02*
X162896493Y-107200771D01*
X162896493Y-107200771D02*
X162991731Y-107248390D01*
X162991731Y-107248390D02*
X163039350Y-107296009D01*
X163039350Y-107296009D02*
X163086969Y-107391247D01*
X163086969Y-107391247D02*
X163086969Y-107629342D01*
X163086969Y-107629342D02*
X163039350Y-107724580D01*
X163039350Y-107724580D02*
X162991731Y-107772200D01*
X162991731Y-107772200D02*
X162896493Y-107819819D01*
X162896493Y-107819819D02*
X162610779Y-107819819D01*
X162610779Y-107819819D02*
X162515541Y-107772200D01*
X162515541Y-107772200D02*
X162467922Y-107724580D01*
X161134588Y-110359819D02*
X160563160Y-110359819D01*
X160848874Y-110359819D02*
X160848874Y-109359819D01*
X160848874Y-109359819D02*
X160753636Y-109502676D01*
X160753636Y-109502676D02*
X160658398Y-109597914D01*
X160658398Y-109597914D02*
X160563160Y-109645533D01*
X161896493Y-109836009D02*
X162039350Y-109883628D01*
X162039350Y-109883628D02*
X162086969Y-109931247D01*
X162086969Y-109931247D02*
X162134588Y-110026485D01*
X162134588Y-110026485D02*
X162134588Y-110169342D01*
X162134588Y-110169342D02*
X162086969Y-110264580D01*
X162086969Y-110264580D02*
X162039350Y-110312200D01*
X162039350Y-110312200D02*
X161944112Y-110359819D01*
X161944112Y-110359819D02*
X161563160Y-110359819D01*
X161563160Y-110359819D02*
X161563160Y-109359819D01*
X161563160Y-109359819D02*
X161896493Y-109359819D01*
X161896493Y-109359819D02*
X161991731Y-109407438D01*
X161991731Y-109407438D02*
X162039350Y-109455057D01*
X162039350Y-109455057D02*
X162086969Y-109550295D01*
X162086969Y-109550295D02*
X162086969Y-109645533D01*
X162086969Y-109645533D02*
X162039350Y-109740771D01*
X162039350Y-109740771D02*
X161991731Y-109788390D01*
X161991731Y-109788390D02*
X161896493Y-109836009D01*
X161896493Y-109836009D02*
X161563160Y-109836009D01*
X162991731Y-109693152D02*
X162991731Y-110359819D01*
X162753636Y-109312200D02*
X162515541Y-110026485D01*
X162515541Y-110026485D02*
X163134588Y-110026485D01*
X161134588Y-112899819D02*
X160563160Y-112899819D01*
X160848874Y-112899819D02*
X160848874Y-111899819D01*
X160848874Y-111899819D02*
X160753636Y-112042676D01*
X160753636Y-112042676D02*
X160658398Y-112137914D01*
X160658398Y-112137914D02*
X160563160Y-112185533D01*
X161896493Y-112376009D02*
X162039350Y-112423628D01*
X162039350Y-112423628D02*
X162086969Y-112471247D01*
X162086969Y-112471247D02*
X162134588Y-112566485D01*
X162134588Y-112566485D02*
X162134588Y-112709342D01*
X162134588Y-112709342D02*
X162086969Y-112804580D01*
X162086969Y-112804580D02*
X162039350Y-112852200D01*
X162039350Y-112852200D02*
X161944112Y-112899819D01*
X161944112Y-112899819D02*
X161563160Y-112899819D01*
X161563160Y-112899819D02*
X161563160Y-111899819D01*
X161563160Y-111899819D02*
X161896493Y-111899819D01*
X161896493Y-111899819D02*
X161991731Y-111947438D01*
X161991731Y-111947438D02*
X162039350Y-111995057D01*
X162039350Y-111995057D02*
X162086969Y-112090295D01*
X162086969Y-112090295D02*
X162086969Y-112185533D01*
X162086969Y-112185533D02*
X162039350Y-112280771D01*
X162039350Y-112280771D02*
X161991731Y-112328390D01*
X161991731Y-112328390D02*
X161896493Y-112376009D01*
X161896493Y-112376009D02*
X161563160Y-112376009D01*
X163039350Y-111899819D02*
X162563160Y-111899819D01*
X162563160Y-111899819D02*
X162515541Y-112376009D01*
X162515541Y-112376009D02*
X162563160Y-112328390D01*
X162563160Y-112328390D02*
X162658398Y-112280771D01*
X162658398Y-112280771D02*
X162896493Y-112280771D01*
X162896493Y-112280771D02*
X162991731Y-112328390D01*
X162991731Y-112328390D02*
X163039350Y-112376009D01*
X163039350Y-112376009D02*
X163086969Y-112471247D01*
X163086969Y-112471247D02*
X163086969Y-112709342D01*
X163086969Y-112709342D02*
X163039350Y-112804580D01*
X163039350Y-112804580D02*
X162991731Y-112852200D01*
X162991731Y-112852200D02*
X162896493Y-112899819D01*
X162896493Y-112899819D02*
X162658398Y-112899819D01*
X162658398Y-112899819D02*
X162563160Y-112852200D01*
X162563160Y-112852200D02*
X162515541Y-112804580D01*
X160563160Y-114535057D02*
X160610779Y-114487438D01*
X160610779Y-114487438D02*
X160706017Y-114439819D01*
X160706017Y-114439819D02*
X160944112Y-114439819D01*
X160944112Y-114439819D02*
X161039350Y-114487438D01*
X161039350Y-114487438D02*
X161086969Y-114535057D01*
X161086969Y-114535057D02*
X161134588Y-114630295D01*
X161134588Y-114630295D02*
X161134588Y-114725533D01*
X161134588Y-114725533D02*
X161086969Y-114868390D01*
X161086969Y-114868390D02*
X160515541Y-115439819D01*
X160515541Y-115439819D02*
X161134588Y-115439819D01*
X161896493Y-114916009D02*
X162039350Y-114963628D01*
X162039350Y-114963628D02*
X162086969Y-115011247D01*
X162086969Y-115011247D02*
X162134588Y-115106485D01*
X162134588Y-115106485D02*
X162134588Y-115249342D01*
X162134588Y-115249342D02*
X162086969Y-115344580D01*
X162086969Y-115344580D02*
X162039350Y-115392200D01*
X162039350Y-115392200D02*
X161944112Y-115439819D01*
X161944112Y-115439819D02*
X161563160Y-115439819D01*
X161563160Y-115439819D02*
X161563160Y-114439819D01*
X161563160Y-114439819D02*
X161896493Y-114439819D01*
X161896493Y-114439819D02*
X161991731Y-114487438D01*
X161991731Y-114487438D02*
X162039350Y-114535057D01*
X162039350Y-114535057D02*
X162086969Y-114630295D01*
X162086969Y-114630295D02*
X162086969Y-114725533D01*
X162086969Y-114725533D02*
X162039350Y-114820771D01*
X162039350Y-114820771D02*
X161991731Y-114868390D01*
X161991731Y-114868390D02*
X161896493Y-114916009D01*
X161896493Y-114916009D02*
X161563160Y-114916009D01*
X163086969Y-115439819D02*
X162515541Y-115439819D01*
X162801255Y-115439819D02*
X162801255Y-114439819D01*
X162801255Y-114439819D02*
X162706017Y-114582676D01*
X162706017Y-114582676D02*
X162610779Y-114677914D01*
X162610779Y-114677914D02*
X162515541Y-114725533D01*
X160563160Y-117075057D02*
X160610779Y-117027438D01*
X160610779Y-117027438D02*
X160706017Y-116979819D01*
X160706017Y-116979819D02*
X160944112Y-116979819D01*
X160944112Y-116979819D02*
X161039350Y-117027438D01*
X161039350Y-117027438D02*
X161086969Y-117075057D01*
X161086969Y-117075057D02*
X161134588Y-117170295D01*
X161134588Y-117170295D02*
X161134588Y-117265533D01*
X161134588Y-117265533D02*
X161086969Y-117408390D01*
X161086969Y-117408390D02*
X160515541Y-117979819D01*
X160515541Y-117979819D02*
X161134588Y-117979819D01*
X161896493Y-117456009D02*
X162039350Y-117503628D01*
X162039350Y-117503628D02*
X162086969Y-117551247D01*
X162086969Y-117551247D02*
X162134588Y-117646485D01*
X162134588Y-117646485D02*
X162134588Y-117789342D01*
X162134588Y-117789342D02*
X162086969Y-117884580D01*
X162086969Y-117884580D02*
X162039350Y-117932200D01*
X162039350Y-117932200D02*
X161944112Y-117979819D01*
X161944112Y-117979819D02*
X161563160Y-117979819D01*
X161563160Y-117979819D02*
X161563160Y-116979819D01*
X161563160Y-116979819D02*
X161896493Y-116979819D01*
X161896493Y-116979819D02*
X161991731Y-117027438D01*
X161991731Y-117027438D02*
X162039350Y-117075057D01*
X162039350Y-117075057D02*
X162086969Y-117170295D01*
X162086969Y-117170295D02*
X162086969Y-117265533D01*
X162086969Y-117265533D02*
X162039350Y-117360771D01*
X162039350Y-117360771D02*
X161991731Y-117408390D01*
X161991731Y-117408390D02*
X161896493Y-117456009D01*
X161896493Y-117456009D02*
X161563160Y-117456009D01*
X162515541Y-117075057D02*
X162563160Y-117027438D01*
X162563160Y-117027438D02*
X162658398Y-116979819D01*
X162658398Y-116979819D02*
X162896493Y-116979819D01*
X162896493Y-116979819D02*
X162991731Y-117027438D01*
X162991731Y-117027438D02*
X163039350Y-117075057D01*
X163039350Y-117075057D02*
X163086969Y-117170295D01*
X163086969Y-117170295D02*
X163086969Y-117265533D01*
X163086969Y-117265533D02*
X163039350Y-117408390D01*
X163039350Y-117408390D02*
X162467922Y-117979819D01*
X162467922Y-117979819D02*
X163086969Y-117979819D01*
X160563160Y-119869057D02*
X160610779Y-119821438D01*
X160610779Y-119821438D02*
X160706017Y-119773819D01*
X160706017Y-119773819D02*
X160944112Y-119773819D01*
X160944112Y-119773819D02*
X161039350Y-119821438D01*
X161039350Y-119821438D02*
X161086969Y-119869057D01*
X161086969Y-119869057D02*
X161134588Y-119964295D01*
X161134588Y-119964295D02*
X161134588Y-120059533D01*
X161134588Y-120059533D02*
X161086969Y-120202390D01*
X161086969Y-120202390D02*
X160515541Y-120773819D01*
X160515541Y-120773819D02*
X161134588Y-120773819D01*
X161896493Y-120250009D02*
X162039350Y-120297628D01*
X162039350Y-120297628D02*
X162086969Y-120345247D01*
X162086969Y-120345247D02*
X162134588Y-120440485D01*
X162134588Y-120440485D02*
X162134588Y-120583342D01*
X162134588Y-120583342D02*
X162086969Y-120678580D01*
X162086969Y-120678580D02*
X162039350Y-120726200D01*
X162039350Y-120726200D02*
X161944112Y-120773819D01*
X161944112Y-120773819D02*
X161563160Y-120773819D01*
X161563160Y-120773819D02*
X161563160Y-119773819D01*
X161563160Y-119773819D02*
X161896493Y-119773819D01*
X161896493Y-119773819D02*
X161991731Y-119821438D01*
X161991731Y-119821438D02*
X162039350Y-119869057D01*
X162039350Y-119869057D02*
X162086969Y-119964295D01*
X162086969Y-119964295D02*
X162086969Y-120059533D01*
X162086969Y-120059533D02*
X162039350Y-120154771D01*
X162039350Y-120154771D02*
X161991731Y-120202390D01*
X161991731Y-120202390D02*
X161896493Y-120250009D01*
X161896493Y-120250009D02*
X161563160Y-120250009D01*
X162467922Y-119773819D02*
X163086969Y-119773819D01*
X163086969Y-119773819D02*
X162753636Y-120154771D01*
X162753636Y-120154771D02*
X162896493Y-120154771D01*
X162896493Y-120154771D02*
X162991731Y-120202390D01*
X162991731Y-120202390D02*
X163039350Y-120250009D01*
X163039350Y-120250009D02*
X163086969Y-120345247D01*
X163086969Y-120345247D02*
X163086969Y-120583342D01*
X163086969Y-120583342D02*
X163039350Y-120678580D01*
X163039350Y-120678580D02*
X162991731Y-120726200D01*
X162991731Y-120726200D02*
X162896493Y-120773819D01*
X162896493Y-120773819D02*
X162610779Y-120773819D01*
X162610779Y-120773819D02*
X162515541Y-120726200D01*
X162515541Y-120726200D02*
X162467922Y-120678580D01*
X160563160Y-122917057D02*
X160610779Y-122869438D01*
X160610779Y-122869438D02*
X160706017Y-122821819D01*
X160706017Y-122821819D02*
X160944112Y-122821819D01*
X160944112Y-122821819D02*
X161039350Y-122869438D01*
X161039350Y-122869438D02*
X161086969Y-122917057D01*
X161086969Y-122917057D02*
X161134588Y-123012295D01*
X161134588Y-123012295D02*
X161134588Y-123107533D01*
X161134588Y-123107533D02*
X161086969Y-123250390D01*
X161086969Y-123250390D02*
X160515541Y-123821819D01*
X160515541Y-123821819D02*
X161134588Y-123821819D01*
X161896493Y-123298009D02*
X162039350Y-123345628D01*
X162039350Y-123345628D02*
X162086969Y-123393247D01*
X162086969Y-123393247D02*
X162134588Y-123488485D01*
X162134588Y-123488485D02*
X162134588Y-123631342D01*
X162134588Y-123631342D02*
X162086969Y-123726580D01*
X162086969Y-123726580D02*
X162039350Y-123774200D01*
X162039350Y-123774200D02*
X161944112Y-123821819D01*
X161944112Y-123821819D02*
X161563160Y-123821819D01*
X161563160Y-123821819D02*
X161563160Y-122821819D01*
X161563160Y-122821819D02*
X161896493Y-122821819D01*
X161896493Y-122821819D02*
X161991731Y-122869438D01*
X161991731Y-122869438D02*
X162039350Y-122917057D01*
X162039350Y-122917057D02*
X162086969Y-123012295D01*
X162086969Y-123012295D02*
X162086969Y-123107533D01*
X162086969Y-123107533D02*
X162039350Y-123202771D01*
X162039350Y-123202771D02*
X161991731Y-123250390D01*
X161991731Y-123250390D02*
X161896493Y-123298009D01*
X161896493Y-123298009D02*
X161563160Y-123298009D01*
X162991731Y-123155152D02*
X162991731Y-123821819D01*
X162753636Y-122774200D02*
X162515541Y-123488485D01*
X162515541Y-123488485D02*
X163134588Y-123488485D01*
X160563160Y-124949057D02*
X160610779Y-124901438D01*
X160610779Y-124901438D02*
X160706017Y-124853819D01*
X160706017Y-124853819D02*
X160944112Y-124853819D01*
X160944112Y-124853819D02*
X161039350Y-124901438D01*
X161039350Y-124901438D02*
X161086969Y-124949057D01*
X161086969Y-124949057D02*
X161134588Y-125044295D01*
X161134588Y-125044295D02*
X161134588Y-125139533D01*
X161134588Y-125139533D02*
X161086969Y-125282390D01*
X161086969Y-125282390D02*
X160515541Y-125853819D01*
X160515541Y-125853819D02*
X161134588Y-125853819D01*
X161896493Y-125330009D02*
X162039350Y-125377628D01*
X162039350Y-125377628D02*
X162086969Y-125425247D01*
X162086969Y-125425247D02*
X162134588Y-125520485D01*
X162134588Y-125520485D02*
X162134588Y-125663342D01*
X162134588Y-125663342D02*
X162086969Y-125758580D01*
X162086969Y-125758580D02*
X162039350Y-125806200D01*
X162039350Y-125806200D02*
X161944112Y-125853819D01*
X161944112Y-125853819D02*
X161563160Y-125853819D01*
X161563160Y-125853819D02*
X161563160Y-124853819D01*
X161563160Y-124853819D02*
X161896493Y-124853819D01*
X161896493Y-124853819D02*
X161991731Y-124901438D01*
X161991731Y-124901438D02*
X162039350Y-124949057D01*
X162039350Y-124949057D02*
X162086969Y-125044295D01*
X162086969Y-125044295D02*
X162086969Y-125139533D01*
X162086969Y-125139533D02*
X162039350Y-125234771D01*
X162039350Y-125234771D02*
X161991731Y-125282390D01*
X161991731Y-125282390D02*
X161896493Y-125330009D01*
X161896493Y-125330009D02*
X161563160Y-125330009D01*
X163039350Y-124853819D02*
X162563160Y-124853819D01*
X162563160Y-124853819D02*
X162515541Y-125330009D01*
X162515541Y-125330009D02*
X162563160Y-125282390D01*
X162563160Y-125282390D02*
X162658398Y-125234771D01*
X162658398Y-125234771D02*
X162896493Y-125234771D01*
X162896493Y-125234771D02*
X162991731Y-125282390D01*
X162991731Y-125282390D02*
X163039350Y-125330009D01*
X163039350Y-125330009D02*
X163086969Y-125425247D01*
X163086969Y-125425247D02*
X163086969Y-125663342D01*
X163086969Y-125663342D02*
X163039350Y-125758580D01*
X163039350Y-125758580D02*
X162991731Y-125806200D01*
X162991731Y-125806200D02*
X162896493Y-125853819D01*
X162896493Y-125853819D02*
X162658398Y-125853819D01*
X162658398Y-125853819D02*
X162563160Y-125806200D01*
X162563160Y-125806200D02*
X162515541Y-125758580D01*
X136433160Y-124695057D02*
X136480779Y-124647438D01*
X136480779Y-124647438D02*
X136576017Y-124599819D01*
X136576017Y-124599819D02*
X136814112Y-124599819D01*
X136814112Y-124599819D02*
X136909350Y-124647438D01*
X136909350Y-124647438D02*
X136956969Y-124695057D01*
X136956969Y-124695057D02*
X137004588Y-124790295D01*
X137004588Y-124790295D02*
X137004588Y-124885533D01*
X137004588Y-124885533D02*
X136956969Y-125028390D01*
X136956969Y-125028390D02*
X136385541Y-125599819D01*
X136385541Y-125599819D02*
X137004588Y-125599819D01*
X137623636Y-124599819D02*
X137718874Y-124599819D01*
X137718874Y-124599819D02*
X137814112Y-124647438D01*
X137814112Y-124647438D02*
X137861731Y-124695057D01*
X137861731Y-124695057D02*
X137909350Y-124790295D01*
X137909350Y-124790295D02*
X137956969Y-124980771D01*
X137956969Y-124980771D02*
X137956969Y-125218866D01*
X137956969Y-125218866D02*
X137909350Y-125409342D01*
X137909350Y-125409342D02*
X137861731Y-125504580D01*
X137861731Y-125504580D02*
X137814112Y-125552200D01*
X137814112Y-125552200D02*
X137718874Y-125599819D01*
X137718874Y-125599819D02*
X137623636Y-125599819D01*
X137623636Y-125599819D02*
X137528398Y-125552200D01*
X137528398Y-125552200D02*
X137480779Y-125504580D01*
X137480779Y-125504580D02*
X137433160Y-125409342D01*
X137433160Y-125409342D02*
X137385541Y-125218866D01*
X137385541Y-125218866D02*
X137385541Y-124980771D01*
X137385541Y-124980771D02*
X137433160Y-124790295D01*
X137433160Y-124790295D02*
X137480779Y-124695057D01*
X137480779Y-124695057D02*
X137528398Y-124647438D01*
X137528398Y-124647438D02*
X137623636Y-124599819D01*
X138385541Y-125076009D02*
X138718874Y-125076009D01*
X138861731Y-125599819D02*
X138385541Y-125599819D01*
X138385541Y-125599819D02*
X138385541Y-124599819D01*
X138385541Y-124599819D02*
X138861731Y-124599819D01*
X137004588Y-123313819D02*
X136433160Y-123313819D01*
X136718874Y-123313819D02*
X136718874Y-122313819D01*
X136718874Y-122313819D02*
X136623636Y-122456676D01*
X136623636Y-122456676D02*
X136528398Y-122551914D01*
X136528398Y-122551914D02*
X136433160Y-122599533D01*
X137623636Y-122313819D02*
X137718874Y-122313819D01*
X137718874Y-122313819D02*
X137814112Y-122361438D01*
X137814112Y-122361438D02*
X137861731Y-122409057D01*
X137861731Y-122409057D02*
X137909350Y-122504295D01*
X137909350Y-122504295D02*
X137956969Y-122694771D01*
X137956969Y-122694771D02*
X137956969Y-122932866D01*
X137956969Y-122932866D02*
X137909350Y-123123342D01*
X137909350Y-123123342D02*
X137861731Y-123218580D01*
X137861731Y-123218580D02*
X137814112Y-123266200D01*
X137814112Y-123266200D02*
X137718874Y-123313819D01*
X137718874Y-123313819D02*
X137623636Y-123313819D01*
X137623636Y-123313819D02*
X137528398Y-123266200D01*
X137528398Y-123266200D02*
X137480779Y-123218580D01*
X137480779Y-123218580D02*
X137433160Y-123123342D01*
X137433160Y-123123342D02*
X137385541Y-122932866D01*
X137385541Y-122932866D02*
X137385541Y-122694771D01*
X137385541Y-122694771D02*
X137433160Y-122504295D01*
X137433160Y-122504295D02*
X137480779Y-122409057D01*
X137480779Y-122409057D02*
X137528398Y-122361438D01*
X137528398Y-122361438D02*
X137623636Y-122313819D01*
X138385541Y-122790009D02*
X138718874Y-122790009D01*
X138861731Y-123313819D02*
X138385541Y-123313819D01*
X138385541Y-123313819D02*
X138385541Y-122313819D01*
X138385541Y-122313819D02*
X138861731Y-122313819D01*
X137195160Y-119615057D02*
X137242779Y-119567438D01*
X137242779Y-119567438D02*
X137338017Y-119519819D01*
X137338017Y-119519819D02*
X137576112Y-119519819D01*
X137576112Y-119519819D02*
X137671350Y-119567438D01*
X137671350Y-119567438D02*
X137718969Y-119615057D01*
X137718969Y-119615057D02*
X137766588Y-119710295D01*
X137766588Y-119710295D02*
X137766588Y-119805533D01*
X137766588Y-119805533D02*
X137718969Y-119948390D01*
X137718969Y-119948390D02*
X137147541Y-120519819D01*
X137147541Y-120519819D02*
X137766588Y-120519819D01*
X138147541Y-120234104D02*
X138623731Y-120234104D01*
X138052303Y-120519819D02*
X138385636Y-119519819D01*
X138385636Y-119519819D02*
X138718969Y-120519819D01*
X139528493Y-119519819D02*
X139052303Y-119519819D01*
X139052303Y-119519819D02*
X139004684Y-119996009D01*
X139004684Y-119996009D02*
X139052303Y-119948390D01*
X139052303Y-119948390D02*
X139147541Y-119900771D01*
X139147541Y-119900771D02*
X139385636Y-119900771D01*
X139385636Y-119900771D02*
X139480874Y-119948390D01*
X139480874Y-119948390D02*
X139528493Y-119996009D01*
X139528493Y-119996009D02*
X139576112Y-120091247D01*
X139576112Y-120091247D02*
X139576112Y-120329342D01*
X139576112Y-120329342D02*
X139528493Y-120424580D01*
X139528493Y-120424580D02*
X139480874Y-120472200D01*
X139480874Y-120472200D02*
X139385636Y-120519819D01*
X139385636Y-120519819D02*
X139147541Y-120519819D01*
X139147541Y-120519819D02*
X139052303Y-120472200D01*
X139052303Y-120472200D02*
X139004684Y-120424580D01*
X136433160Y-117075057D02*
X136480779Y-117027438D01*
X136480779Y-117027438D02*
X136576017Y-116979819D01*
X136576017Y-116979819D02*
X136814112Y-116979819D01*
X136814112Y-116979819D02*
X136909350Y-117027438D01*
X136909350Y-117027438D02*
X136956969Y-117075057D01*
X136956969Y-117075057D02*
X137004588Y-117170295D01*
X137004588Y-117170295D02*
X137004588Y-117265533D01*
X137004588Y-117265533D02*
X136956969Y-117408390D01*
X136956969Y-117408390D02*
X136385541Y-117979819D01*
X136385541Y-117979819D02*
X137004588Y-117979819D01*
X137385541Y-117694104D02*
X137861731Y-117694104D01*
X137290303Y-117979819D02*
X137623636Y-116979819D01*
X137623636Y-116979819D02*
X137956969Y-117979819D01*
X138718874Y-117313152D02*
X138718874Y-117979819D01*
X138480779Y-116932200D02*
X138242684Y-117646485D01*
X138242684Y-117646485D02*
X138861731Y-117646485D01*
X136433160Y-114535057D02*
X136480779Y-114487438D01*
X136480779Y-114487438D02*
X136576017Y-114439819D01*
X136576017Y-114439819D02*
X136814112Y-114439819D01*
X136814112Y-114439819D02*
X136909350Y-114487438D01*
X136909350Y-114487438D02*
X136956969Y-114535057D01*
X136956969Y-114535057D02*
X137004588Y-114630295D01*
X137004588Y-114630295D02*
X137004588Y-114725533D01*
X137004588Y-114725533D02*
X136956969Y-114868390D01*
X136956969Y-114868390D02*
X136385541Y-115439819D01*
X136385541Y-115439819D02*
X137004588Y-115439819D01*
X137385541Y-115154104D02*
X137861731Y-115154104D01*
X137290303Y-115439819D02*
X137623636Y-114439819D01*
X137623636Y-114439819D02*
X137956969Y-115439819D01*
X138195065Y-114439819D02*
X138814112Y-114439819D01*
X138814112Y-114439819D02*
X138480779Y-114820771D01*
X138480779Y-114820771D02*
X138623636Y-114820771D01*
X138623636Y-114820771D02*
X138718874Y-114868390D01*
X138718874Y-114868390D02*
X138766493Y-114916009D01*
X138766493Y-114916009D02*
X138814112Y-115011247D01*
X138814112Y-115011247D02*
X138814112Y-115249342D01*
X138814112Y-115249342D02*
X138766493Y-115344580D01*
X138766493Y-115344580D02*
X138718874Y-115392200D01*
X138718874Y-115392200D02*
X138623636Y-115439819D01*
X138623636Y-115439819D02*
X138337922Y-115439819D01*
X138337922Y-115439819D02*
X138242684Y-115392200D01*
X138242684Y-115392200D02*
X138195065Y-115344580D01*
X136433160Y-111995057D02*
X136480779Y-111947438D01*
X136480779Y-111947438D02*
X136576017Y-111899819D01*
X136576017Y-111899819D02*
X136814112Y-111899819D01*
X136814112Y-111899819D02*
X136909350Y-111947438D01*
X136909350Y-111947438D02*
X136956969Y-111995057D01*
X136956969Y-111995057D02*
X137004588Y-112090295D01*
X137004588Y-112090295D02*
X137004588Y-112185533D01*
X137004588Y-112185533D02*
X136956969Y-112328390D01*
X136956969Y-112328390D02*
X136385541Y-112899819D01*
X136385541Y-112899819D02*
X137004588Y-112899819D01*
X137385541Y-112614104D02*
X137861731Y-112614104D01*
X137290303Y-112899819D02*
X137623636Y-111899819D01*
X137623636Y-111899819D02*
X137956969Y-112899819D01*
X138242684Y-111995057D02*
X138290303Y-111947438D01*
X138290303Y-111947438D02*
X138385541Y-111899819D01*
X138385541Y-111899819D02*
X138623636Y-111899819D01*
X138623636Y-111899819D02*
X138718874Y-111947438D01*
X138718874Y-111947438D02*
X138766493Y-111995057D01*
X138766493Y-111995057D02*
X138814112Y-112090295D01*
X138814112Y-112090295D02*
X138814112Y-112185533D01*
X138814112Y-112185533D02*
X138766493Y-112328390D01*
X138766493Y-112328390D02*
X138195065Y-112899819D01*
X138195065Y-112899819D02*
X138814112Y-112899819D01*
X136433160Y-109709057D02*
X136480779Y-109661438D01*
X136480779Y-109661438D02*
X136576017Y-109613819D01*
X136576017Y-109613819D02*
X136814112Y-109613819D01*
X136814112Y-109613819D02*
X136909350Y-109661438D01*
X136909350Y-109661438D02*
X136956969Y-109709057D01*
X136956969Y-109709057D02*
X137004588Y-109804295D01*
X137004588Y-109804295D02*
X137004588Y-109899533D01*
X137004588Y-109899533D02*
X136956969Y-110042390D01*
X136956969Y-110042390D02*
X136385541Y-110613819D01*
X136385541Y-110613819D02*
X137004588Y-110613819D01*
X137385541Y-110328104D02*
X137861731Y-110328104D01*
X137290303Y-110613819D02*
X137623636Y-109613819D01*
X137623636Y-109613819D02*
X137956969Y-110613819D01*
X138814112Y-110613819D02*
X138242684Y-110613819D01*
X138528398Y-110613819D02*
X138528398Y-109613819D01*
X138528398Y-109613819D02*
X138433160Y-109756676D01*
X138433160Y-109756676D02*
X138337922Y-109851914D01*
X138337922Y-109851914D02*
X138242684Y-109899533D01*
X137004588Y-107819819D02*
X136433160Y-107819819D01*
X136718874Y-107819819D02*
X136718874Y-106819819D01*
X136718874Y-106819819D02*
X136623636Y-106962676D01*
X136623636Y-106962676D02*
X136528398Y-107057914D01*
X136528398Y-107057914D02*
X136433160Y-107105533D01*
X137385541Y-107534104D02*
X137861731Y-107534104D01*
X137290303Y-107819819D02*
X137623636Y-106819819D01*
X137623636Y-106819819D02*
X137956969Y-107819819D01*
X138766493Y-106819819D02*
X138290303Y-106819819D01*
X138290303Y-106819819D02*
X138242684Y-107296009D01*
X138242684Y-107296009D02*
X138290303Y-107248390D01*
X138290303Y-107248390D02*
X138385541Y-107200771D01*
X138385541Y-107200771D02*
X138623636Y-107200771D01*
X138623636Y-107200771D02*
X138718874Y-107248390D01*
X138718874Y-107248390D02*
X138766493Y-107296009D01*
X138766493Y-107296009D02*
X138814112Y-107391247D01*
X138814112Y-107391247D02*
X138814112Y-107629342D01*
X138814112Y-107629342D02*
X138766493Y-107724580D01*
X138766493Y-107724580D02*
X138718874Y-107772200D01*
X138718874Y-107772200D02*
X138623636Y-107819819D01*
X138623636Y-107819819D02*
X138385541Y-107819819D01*
X138385541Y-107819819D02*
X138290303Y-107772200D01*
X138290303Y-107772200D02*
X138242684Y-107724580D01*
X137004588Y-105279819D02*
X136433160Y-105279819D01*
X136718874Y-105279819D02*
X136718874Y-104279819D01*
X136718874Y-104279819D02*
X136623636Y-104422676D01*
X136623636Y-104422676D02*
X136528398Y-104517914D01*
X136528398Y-104517914D02*
X136433160Y-104565533D01*
X137385541Y-104994104D02*
X137861731Y-104994104D01*
X137290303Y-105279819D02*
X137623636Y-104279819D01*
X137623636Y-104279819D02*
X137956969Y-105279819D01*
X138718874Y-104613152D02*
X138718874Y-105279819D01*
X138480779Y-104232200D02*
X138242684Y-104946485D01*
X138242684Y-104946485D02*
X138861731Y-104946485D01*
X137004588Y-102739819D02*
X136433160Y-102739819D01*
X136718874Y-102739819D02*
X136718874Y-101739819D01*
X136718874Y-101739819D02*
X136623636Y-101882676D01*
X136623636Y-101882676D02*
X136528398Y-101977914D01*
X136528398Y-101977914D02*
X136433160Y-102025533D01*
X137385541Y-102454104D02*
X137861731Y-102454104D01*
X137290303Y-102739819D02*
X137623636Y-101739819D01*
X137623636Y-101739819D02*
X137956969Y-102739819D01*
X138195065Y-101739819D02*
X138814112Y-101739819D01*
X138814112Y-101739819D02*
X138480779Y-102120771D01*
X138480779Y-102120771D02*
X138623636Y-102120771D01*
X138623636Y-102120771D02*
X138718874Y-102168390D01*
X138718874Y-102168390D02*
X138766493Y-102216009D01*
X138766493Y-102216009D02*
X138814112Y-102311247D01*
X138814112Y-102311247D02*
X138814112Y-102549342D01*
X138814112Y-102549342D02*
X138766493Y-102644580D01*
X138766493Y-102644580D02*
X138718874Y-102692200D01*
X138718874Y-102692200D02*
X138623636Y-102739819D01*
X138623636Y-102739819D02*
X138337922Y-102739819D01*
X138337922Y-102739819D02*
X138242684Y-102692200D01*
X138242684Y-102692200D02*
X138195065Y-102644580D01*
X137004588Y-99945819D02*
X136433160Y-99945819D01*
X136718874Y-99945819D02*
X136718874Y-98945819D01*
X136718874Y-98945819D02*
X136623636Y-99088676D01*
X136623636Y-99088676D02*
X136528398Y-99183914D01*
X136528398Y-99183914D02*
X136433160Y-99231533D01*
X137766493Y-99422009D02*
X137909350Y-99469628D01*
X137909350Y-99469628D02*
X137956969Y-99517247D01*
X137956969Y-99517247D02*
X138004588Y-99612485D01*
X138004588Y-99612485D02*
X138004588Y-99755342D01*
X138004588Y-99755342D02*
X137956969Y-99850580D01*
X137956969Y-99850580D02*
X137909350Y-99898200D01*
X137909350Y-99898200D02*
X137814112Y-99945819D01*
X137814112Y-99945819D02*
X137433160Y-99945819D01*
X137433160Y-99945819D02*
X137433160Y-98945819D01*
X137433160Y-98945819D02*
X137766493Y-98945819D01*
X137766493Y-98945819D02*
X137861731Y-98993438D01*
X137861731Y-98993438D02*
X137909350Y-99041057D01*
X137909350Y-99041057D02*
X137956969Y-99136295D01*
X137956969Y-99136295D02*
X137956969Y-99231533D01*
X137956969Y-99231533D02*
X137909350Y-99326771D01*
X137909350Y-99326771D02*
X137861731Y-99374390D01*
X137861731Y-99374390D02*
X137766493Y-99422009D01*
X137766493Y-99422009D02*
X137433160Y-99422009D01*
X138385541Y-99041057D02*
X138433160Y-98993438D01*
X138433160Y-98993438D02*
X138528398Y-98945819D01*
X138528398Y-98945819D02*
X138766493Y-98945819D01*
X138766493Y-98945819D02*
X138861731Y-98993438D01*
X138861731Y-98993438D02*
X138909350Y-99041057D01*
X138909350Y-99041057D02*
X138956969Y-99136295D01*
X138956969Y-99136295D02*
X138956969Y-99231533D01*
X138956969Y-99231533D02*
X138909350Y-99374390D01*
X138909350Y-99374390D02*
X138337922Y-99945819D01*
X138337922Y-99945819D02*
X138956969Y-99945819D01*
X137004588Y-97659819D02*
X136433160Y-97659819D01*
X136718874Y-97659819D02*
X136718874Y-96659819D01*
X136718874Y-96659819D02*
X136623636Y-96802676D01*
X136623636Y-96802676D02*
X136528398Y-96897914D01*
X136528398Y-96897914D02*
X136433160Y-96945533D01*
X137766493Y-97136009D02*
X137909350Y-97183628D01*
X137909350Y-97183628D02*
X137956969Y-97231247D01*
X137956969Y-97231247D02*
X138004588Y-97326485D01*
X138004588Y-97326485D02*
X138004588Y-97469342D01*
X138004588Y-97469342D02*
X137956969Y-97564580D01*
X137956969Y-97564580D02*
X137909350Y-97612200D01*
X137909350Y-97612200D02*
X137814112Y-97659819D01*
X137814112Y-97659819D02*
X137433160Y-97659819D01*
X137433160Y-97659819D02*
X137433160Y-96659819D01*
X137433160Y-96659819D02*
X137766493Y-96659819D01*
X137766493Y-96659819D02*
X137861731Y-96707438D01*
X137861731Y-96707438D02*
X137909350Y-96755057D01*
X137909350Y-96755057D02*
X137956969Y-96850295D01*
X137956969Y-96850295D02*
X137956969Y-96945533D01*
X137956969Y-96945533D02*
X137909350Y-97040771D01*
X137909350Y-97040771D02*
X137861731Y-97088390D01*
X137861731Y-97088390D02*
X137766493Y-97136009D01*
X137766493Y-97136009D02*
X137433160Y-97136009D01*
X138956969Y-97659819D02*
X138385541Y-97659819D01*
X138671255Y-97659819D02*
X138671255Y-96659819D01*
X138671255Y-96659819D02*
X138576017Y-96802676D01*
X138576017Y-96802676D02*
X138480779Y-96897914D01*
X138480779Y-96897914D02*
X138385541Y-96945533D01*
X133270666Y-94401819D02*
X133270666Y-95116104D01*
X133270666Y-95116104D02*
X133223047Y-95258961D01*
X133223047Y-95258961D02*
X133127809Y-95354200D01*
X133127809Y-95354200D02*
X132984952Y-95401819D01*
X132984952Y-95401819D02*
X132889714Y-95401819D01*
X133651619Y-94401819D02*
X134270666Y-94401819D01*
X134270666Y-94401819D02*
X133937333Y-94782771D01*
X133937333Y-94782771D02*
X134080190Y-94782771D01*
X134080190Y-94782771D02*
X134175428Y-94830390D01*
X134175428Y-94830390D02*
X134223047Y-94878009D01*
X134223047Y-94878009D02*
X134270666Y-94973247D01*
X134270666Y-94973247D02*
X134270666Y-95211342D01*
X134270666Y-95211342D02*
X134223047Y-95306580D01*
X134223047Y-95306580D02*
X134175428Y-95354200D01*
X134175428Y-95354200D02*
X134080190Y-95401819D01*
X134080190Y-95401819D02*
X133794476Y-95401819D01*
X133794476Y-95401819D02*
X133699238Y-95354200D01*
X133699238Y-95354200D02*
X133651619Y-95306580D01*
X149537595Y-122799819D02*
X149537595Y-123609342D01*
X149537595Y-123609342D02*
X149585214Y-123704580D01*
X149585214Y-123704580D02*
X149632833Y-123752200D01*
X149632833Y-123752200D02*
X149728071Y-123799819D01*
X149728071Y-123799819D02*
X149918547Y-123799819D01*
X149918547Y-123799819D02*
X150013785Y-123752200D01*
X150013785Y-123752200D02*
X150061404Y-123704580D01*
X150061404Y-123704580D02*
X150109023Y-123609342D01*
X150109023Y-123609342D02*
X150109023Y-122799819D01*
X150537595Y-122895057D02*
X150585214Y-122847438D01*
X150585214Y-122847438D02*
X150680452Y-122799819D01*
X150680452Y-122799819D02*
X150918547Y-122799819D01*
X150918547Y-122799819D02*
X151013785Y-122847438D01*
X151013785Y-122847438D02*
X151061404Y-122895057D01*
X151061404Y-122895057D02*
X151109023Y-122990295D01*
X151109023Y-122990295D02*
X151109023Y-123085533D01*
X151109023Y-123085533D02*
X151061404Y-123228390D01*
X151061404Y-123228390D02*
X150489976Y-123799819D01*
X150489976Y-123799819D02*
X151109023Y-123799819D01*
X165274666Y-127006819D02*
X165274666Y-127721104D01*
X165274666Y-127721104D02*
X165227047Y-127863961D01*
X165227047Y-127863961D02*
X165131809Y-127959200D01*
X165131809Y-127959200D02*
X164988952Y-128006819D01*
X164988952Y-128006819D02*
X164893714Y-128006819D01*
X166274666Y-128006819D02*
X165703238Y-128006819D01*
X165988952Y-128006819D02*
X165988952Y-127006819D01*
X165988952Y-127006819D02*
X165893714Y-127149676D01*
X165893714Y-127149676D02*
X165798476Y-127244914D01*
X165798476Y-127244914D02*
X165703238Y-127292533D01*
X149065095Y-103828819D02*
X149065095Y-104638342D01*
X149065095Y-104638342D02*
X149112714Y-104733580D01*
X149112714Y-104733580D02*
X149160333Y-104781200D01*
X149160333Y-104781200D02*
X149255571Y-104828819D01*
X149255571Y-104828819D02*
X149446047Y-104828819D01*
X149446047Y-104828819D02*
X149541285Y-104781200D01*
X149541285Y-104781200D02*
X149588904Y-104733580D01*
X149588904Y-104733580D02*
X149636523Y-104638342D01*
X149636523Y-104638342D02*
X149636523Y-103828819D01*
X150636523Y-104828819D02*
X150065095Y-104828819D01*
X150350809Y-104828819D02*
X150350809Y-103828819D01*
X150350809Y-103828819D02*
X150255571Y-103971676D01*
X150255571Y-103971676D02*
X150160333Y-104066914D01*
X150160333Y-104066914D02*
X150065095Y-104114533D01*
D11*
X132274000Y-95947000D02*
X133604000Y-95947000D01*
X132274000Y-97277000D02*
X132274000Y-95947000D01*
X132274000Y-98547000D02*
X132274000Y-126547000D01*
X132274000Y-98547000D02*
X134934000Y-98547000D01*
X132274000Y-126547000D02*
X134934000Y-126547000D01*
X134934000Y-98547000D02*
X134934000Y-126547000D01*
X150299500Y-122530000D02*
X153899500Y-122530000D01*
X150299500Y-122530000D02*
X148099500Y-122530000D01*
X150299500Y-114460000D02*
X152499500Y-114460000D01*
X150299500Y-114460000D02*
X148099500Y-114460000D01*
X166938000Y-126552000D02*
X165608000Y-126552000D01*
X166938000Y-125222000D02*
X166938000Y-126552000D01*
X166938000Y-123952000D02*
X166938000Y-95952000D01*
X166938000Y-123952000D02*
X164278000Y-123952000D01*
X166938000Y-95952000D02*
X164278000Y-95952000D01*
X164278000Y-123952000D02*
X164278000Y-95952000D01*
D12*
X148622000Y-105186000D02*
X152622000Y-105186000D01*
X148622000Y-110206000D02*
X152622000Y-110206000D01*
D13*
X146277000Y-105221000D02*
G75*
G03*
X146277000Y-105221000I-100000J0D01*
G01*
%LPC*%
D14*
X133604000Y-97277000D03*
D15*
X133604000Y-99817000D03*
X133604000Y-102357000D03*
X133604000Y-104897000D03*
X133604000Y-107437000D03*
X133604000Y-109977000D03*
X133604000Y-112517000D03*
X133604000Y-115057000D03*
X133604000Y-117597000D03*
X133604000Y-120137000D03*
X133604000Y-122677000D03*
X133604000Y-125217000D03*
D16*
X153162000Y-122070000D03*
X153162000Y-121420000D03*
X153162000Y-120770000D03*
X153162000Y-120120000D03*
X153162000Y-119470000D03*
X153162000Y-118820000D03*
X153162000Y-118170000D03*
X153162000Y-117520000D03*
X153162000Y-116870000D03*
X153162000Y-116220000D03*
X153162000Y-115570000D03*
X153162000Y-114920000D03*
X147437000Y-114920000D03*
X147437000Y-115570000D03*
X147437000Y-116220000D03*
X147437000Y-116870000D03*
X147437000Y-117520000D03*
X147437000Y-118170000D03*
X147437000Y-118820000D03*
X147437000Y-119470000D03*
X147437000Y-120120000D03*
X147437000Y-120770000D03*
X147437000Y-121420000D03*
X147437000Y-122070000D03*
D14*
X165608000Y-125222000D03*
D15*
X165608000Y-122682000D03*
X165608000Y-120142000D03*
X165608000Y-117602000D03*
X165608000Y-115062000D03*
X165608000Y-112522000D03*
X165608000Y-109982000D03*
X165608000Y-107442000D03*
X165608000Y-104902000D03*
X165608000Y-102362000D03*
X165608000Y-99822000D03*
X165608000Y-97282000D03*
D17*
X148147000Y-105791000D03*
X148147000Y-107061000D03*
X148147000Y-108331000D03*
X148147000Y-109601000D03*
X153097000Y-109601000D03*
X153097000Y-108331000D03*
X153097000Y-107061000D03*
X153097000Y-105791000D03*
%LPD*%
M02*
