G04 #@! TF.GenerationSoftware,KiCad,Pcbnew,7.0.7*
G04 #@! TF.CreationDate,2023-09-07T14:52:05+08:00*
G04 #@! TF.ProjectId,rs485,72733438-352e-46b6-9963-61645f706362,rev?*
G04 #@! TF.SameCoordinates,Original*
G04 #@! TF.FileFunction,Copper,L1,Top*
G04 #@! TF.FilePolarity,Positive*
%FSLAX46Y46*%
G04 Gerber Fmt 4.6, Leading zero omitted, Abs format (unit mm)*
G04 Created by KiCad (PCBNEW 7.0.7) date 2023-09-07 14:52:05*
%MOMM*%
%LPD*%
G01*
G04 APERTURE LIST*
G04 Aperture macros list*
%AMRoundRect*
0 Rectangle with rounded corners*
0 $1 Rounding radius*
0 $2 $3 $4 $5 $6 $7 $8 $9 X,Y pos of 4 corners*
0 Add a 4 corners polygon primitive as box body*
4,1,4,$2,$3,$4,$5,$6,$7,$8,$9,$2,$3,0*
0 Add four circle primitives for the rounded corners*
1,1,$1+$1,$2,$3*
1,1,$1+$1,$4,$5*
1,1,$1+$1,$6,$7*
1,1,$1+$1,$8,$9*
0 Add four rect primitives between the rounded corners*
20,1,$1+$1,$2,$3,$4,$5,0*
20,1,$1+$1,$4,$5,$6,$7,0*
20,1,$1+$1,$6,$7,$8,$9,0*
20,1,$1+$1,$8,$9,$2,$3,0*%
G04 Aperture macros list end*
G04 #@! TA.AperFunction,ComponentPad*
%ADD10R,1.700000X1.700000*%
G04 #@! TD*
G04 #@! TA.AperFunction,ComponentPad*
%ADD11O,1.700000X1.700000*%
G04 #@! TD*
G04 #@! TA.AperFunction,SMDPad,CuDef*
%ADD12RoundRect,0.100000X0.637500X0.100000X-0.637500X0.100000X-0.637500X-0.100000X0.637500X-0.100000X0*%
G04 #@! TD*
G04 #@! TA.AperFunction,SMDPad,CuDef*
%ADD13RoundRect,0.039900X-0.945100X-0.245100X0.945100X-0.245100X0.945100X0.245100X-0.945100X0.245100X0*%
G04 #@! TD*
G04 #@! TA.AperFunction,ViaPad*
%ADD14C,0.800000*%
G04 #@! TD*
G04 #@! TA.AperFunction,Conductor*
%ADD15C,0.250000*%
G04 #@! TD*
G04 APERTURE END LIST*
D10*
X133604000Y-97277000D03*
D11*
X133604000Y-99817000D03*
X133604000Y-102357000D03*
X133604000Y-104897000D03*
X133604000Y-107437000D03*
X133604000Y-109977000D03*
X133604000Y-112517000D03*
X133604000Y-115057000D03*
X133604000Y-117597000D03*
X133604000Y-120137000D03*
X133604000Y-122677000D03*
X133604000Y-125217000D03*
D12*
X153162000Y-122070000D03*
X153162000Y-121420000D03*
X153162000Y-120770000D03*
X153162000Y-120120000D03*
X153162000Y-119470000D03*
X153162000Y-118820000D03*
X153162000Y-118170000D03*
X153162000Y-117520000D03*
X153162000Y-116870000D03*
X153162000Y-116220000D03*
X153162000Y-115570000D03*
X153162000Y-114920000D03*
X147437000Y-114920000D03*
X147437000Y-115570000D03*
X147437000Y-116220000D03*
X147437000Y-116870000D03*
X147437000Y-117520000D03*
X147437000Y-118170000D03*
X147437000Y-118820000D03*
X147437000Y-119470000D03*
X147437000Y-120120000D03*
X147437000Y-120770000D03*
X147437000Y-121420000D03*
X147437000Y-122070000D03*
D10*
X165608000Y-125222000D03*
D11*
X165608000Y-122682000D03*
X165608000Y-120142000D03*
X165608000Y-117602000D03*
X165608000Y-115062000D03*
X165608000Y-112522000D03*
X165608000Y-109982000D03*
X165608000Y-107442000D03*
X165608000Y-104902000D03*
X165608000Y-102362000D03*
X165608000Y-99822000D03*
X165608000Y-97282000D03*
D13*
X148147000Y-105791000D03*
X148147000Y-107061000D03*
X148147000Y-108331000D03*
X148147000Y-109601000D03*
X153097000Y-109601000D03*
X153097000Y-108331000D03*
X153097000Y-107061000D03*
X153097000Y-105791000D03*
D14*
X154517700Y-121420000D03*
X154505200Y-119507500D03*
X154518600Y-117712500D03*
X136127000Y-120120000D03*
X151585000Y-121011000D03*
D15*
X165608000Y-125222000D02*
X152198300Y-125222000D01*
X152198300Y-125222000D02*
X148396300Y-121420000D01*
X148396300Y-121420000D02*
X147437000Y-121420000D01*
X151566300Y-123953100D02*
X163161600Y-123953100D01*
X163161600Y-123953100D02*
X164432700Y-122682000D01*
X148536200Y-120923000D02*
X151566300Y-123953100D01*
X148145400Y-119470000D02*
X148536200Y-119860800D01*
X165608000Y-122682000D02*
X164432700Y-122682000D01*
X147437000Y-119470000D02*
X148145400Y-119470000D01*
X148536200Y-119860800D02*
X148536200Y-120923000D01*
X165608000Y-120142000D02*
X164432700Y-120142000D01*
X161071900Y-123502800D02*
X164432700Y-120142000D01*
X148165000Y-118820000D02*
X149425400Y-120080400D01*
X149425400Y-120080400D02*
X149425400Y-121175300D01*
X151752900Y-123502800D02*
X161071900Y-123502800D01*
X149425400Y-121175300D02*
X151752900Y-123502800D01*
X147437000Y-118820000D02*
X148165000Y-118820000D01*
X151939500Y-123052500D02*
X158982200Y-123052500D01*
X147437000Y-116870000D02*
X148210000Y-116870000D01*
X148210000Y-116870000D02*
X149875700Y-118535700D01*
X149875700Y-120988700D02*
X151939500Y-123052500D01*
X158982200Y-123052500D02*
X164432700Y-117602000D01*
X165608000Y-117602000D02*
X164432700Y-117602000D01*
X149875700Y-118535700D02*
X149875700Y-120988700D01*
X152126100Y-122602200D02*
X150454700Y-120930800D01*
X150454700Y-118449500D02*
X148225200Y-116220000D01*
X165608000Y-115062000D02*
X164432700Y-115062000D01*
X150454700Y-120930800D02*
X150454700Y-118449500D01*
X156892500Y-122602200D02*
X152126100Y-122602200D01*
X164432700Y-115062000D02*
X156892500Y-122602200D01*
X148225200Y-116220000D02*
X147437000Y-116220000D01*
X155127300Y-116220000D02*
X153162000Y-116220000D01*
X165608000Y-112522000D02*
X167247100Y-110882900D01*
X167247100Y-110882900D02*
X167247100Y-107418800D01*
X166090200Y-106261900D02*
X165085400Y-106261900D01*
X165085400Y-106261900D02*
X155127300Y-116220000D01*
X167247100Y-107418800D02*
X166090200Y-106261900D01*
X165608000Y-109982000D02*
X164432700Y-109982000D01*
X157544700Y-116870000D02*
X153162000Y-116870000D01*
X164432700Y-109982000D02*
X157544700Y-116870000D01*
X157735800Y-118695800D02*
X153286200Y-118695800D01*
X165179600Y-111252000D02*
X157735800Y-118695800D01*
X166796700Y-110459700D02*
X166004400Y-111252000D01*
X165608000Y-107442000D02*
X165608000Y-108617300D01*
X165608000Y-108617300D02*
X165975300Y-108617300D01*
X165975300Y-108617300D02*
X166796700Y-109438700D01*
X166004400Y-111252000D02*
X165179600Y-111252000D01*
X153286200Y-118695800D02*
X153162000Y-118820000D01*
X166796700Y-109438700D02*
X166796700Y-110459700D01*
X165608000Y-104902000D02*
X164432700Y-104902000D01*
X153162000Y-109601000D02*
X153097000Y-109601000D01*
X159733700Y-109601000D02*
X153162000Y-109601000D01*
X153162000Y-109601000D02*
X153162000Y-114920000D01*
X164432700Y-104902000D02*
X159733700Y-109601000D01*
X160365100Y-98522900D02*
X153097000Y-105791000D01*
X165608000Y-97282000D02*
X165608000Y-98457300D01*
X147437000Y-122070000D02*
X151764400Y-126397400D01*
X166016300Y-98522900D02*
X165608000Y-98522900D01*
X165608000Y-98522900D02*
X160365100Y-98522900D01*
X166656800Y-126397400D02*
X167697400Y-125356800D01*
X151764400Y-126397400D02*
X166656800Y-126397400D01*
X165608000Y-98457300D02*
X165608000Y-98522900D01*
X167697400Y-125356800D02*
X167697400Y-100204000D01*
X167697400Y-100204000D02*
X166016300Y-98522900D01*
X164432700Y-99822000D02*
X157193700Y-107061000D01*
X157193700Y-107061000D02*
X153097000Y-107061000D01*
X165608000Y-99822000D02*
X164432700Y-99822000D01*
X164432700Y-102362000D02*
X158463700Y-108331000D01*
X158463700Y-108331000D02*
X153097000Y-108331000D01*
X165608000Y-102362000D02*
X164432700Y-102362000D01*
X153162000Y-121420000D02*
X154517700Y-121420000D01*
X153162000Y-119470000D02*
X154467700Y-119470000D01*
X154467700Y-119470000D02*
X154505200Y-119507500D01*
X154518600Y-117712500D02*
X154061100Y-118170000D01*
X154061100Y-118170000D02*
X153162000Y-118170000D01*
X152452700Y-117520000D02*
X151984300Y-117051600D01*
X150192100Y-114065400D02*
X150192100Y-106061100D01*
X153162000Y-117520000D02*
X152452700Y-117520000D01*
X150192100Y-106061100D02*
X149028000Y-104897000D01*
X151984300Y-117051600D02*
X151984300Y-115857600D01*
X133604000Y-104897000D02*
X134779300Y-104897000D01*
X149028000Y-104897000D02*
X134779300Y-104897000D01*
X151984300Y-115857600D02*
X150192100Y-114065400D01*
X133236700Y-106261700D02*
X133604000Y-106261700D01*
X133156100Y-103678600D02*
X132381800Y-104452900D01*
X133604000Y-107437000D02*
X133604000Y-106261700D01*
X152446200Y-115570000D02*
X150642400Y-113766200D01*
X153162000Y-115570000D02*
X152446200Y-115570000D01*
X150642400Y-105874500D02*
X148446500Y-103678600D01*
X148446500Y-103678600D02*
X133156100Y-103678600D01*
X132381800Y-104452900D02*
X132381800Y-105406800D01*
X150642400Y-113766200D02*
X150642400Y-105874500D01*
X132381800Y-105406800D02*
X133236700Y-106261700D01*
X148133000Y-115570000D02*
X147437000Y-115570000D01*
X143833800Y-109977000D02*
X148516300Y-114659500D01*
X148516300Y-114659500D02*
X148516300Y-115186700D01*
X148516300Y-115186700D02*
X148133000Y-115570000D01*
X133604000Y-109977000D02*
X143833800Y-109977000D01*
X139782300Y-117520000D02*
X147437000Y-117520000D01*
X133604000Y-112517000D02*
X134779300Y-112517000D01*
X134779300Y-112517000D02*
X139782300Y-117520000D01*
X137892300Y-118170000D02*
X147437000Y-118170000D01*
X134779300Y-115057000D02*
X137892300Y-118170000D01*
X133604000Y-115057000D02*
X134779300Y-115057000D01*
X147437000Y-120120000D02*
X136127000Y-120120000D01*
X147356900Y-120850100D02*
X147437000Y-120770000D01*
X134779300Y-120137000D02*
X135492400Y-120850100D01*
X135492400Y-120850100D02*
X147356900Y-120850100D01*
X133604000Y-120137000D02*
X134779300Y-120137000D01*
X151585000Y-121217600D02*
X152437400Y-122070000D01*
X151585000Y-121011000D02*
X151585000Y-121217600D01*
X152437400Y-122070000D02*
X153162000Y-122070000D01*
X132428700Y-111979800D02*
X132428700Y-123233800D01*
X132428700Y-123233800D02*
X133236600Y-124041700D01*
X133604000Y-125217000D02*
X133604000Y-124041700D01*
X147437000Y-114920000D02*
X143855600Y-111338600D01*
X143855600Y-111338600D02*
X133069900Y-111338600D01*
X133236600Y-124041700D02*
X133604000Y-124041700D01*
X133069900Y-111338600D02*
X132428700Y-111979800D01*
X151410000Y-119134200D02*
X152395800Y-120120000D01*
X149057900Y-109601000D02*
X149057900Y-113568100D01*
X152395800Y-120120000D02*
X153162000Y-120120000D01*
X148147000Y-105791000D02*
X148653400Y-105791000D01*
X149057900Y-109601000D02*
X148147000Y-109601000D01*
X149459800Y-109199100D02*
X149057900Y-109601000D01*
X151410000Y-115920200D02*
X151410000Y-119134200D01*
X149057900Y-113568100D02*
X151410000Y-115920200D01*
X149459800Y-106597400D02*
X149459800Y-109199100D01*
X148653400Y-105791000D02*
X149459800Y-106597400D01*
X152408800Y-120770000D02*
X153162000Y-120770000D01*
X147677400Y-108331000D02*
X146800700Y-109207700D01*
X148147000Y-107061000D02*
X148147000Y-108331000D01*
X148147000Y-108331000D02*
X147677400Y-108331000D01*
X146800700Y-112198700D02*
X150905100Y-116303100D01*
X150905100Y-116303100D02*
X150905100Y-119266300D01*
X150905100Y-119266300D02*
X152408800Y-120770000D01*
X146800700Y-109207700D02*
X146800700Y-112198700D01*
G04 #@! TA.AperFunction,Conductor*
G36*
X169361039Y-94507685D02*
G01*
X169406794Y-94560489D01*
X169418000Y-94612000D01*
X169418000Y-127638000D01*
X169398315Y-127705039D01*
X169345511Y-127750794D01*
X169294000Y-127762000D01*
X130426000Y-127762000D01*
X130358961Y-127742315D01*
X130313206Y-127689511D01*
X130302000Y-127638000D01*
X130302000Y-104433098D01*
X131751639Y-104433098D01*
X131756024Y-104479484D01*
X131756299Y-104485321D01*
X131756299Y-105324061D01*
X131754576Y-105339678D01*
X131754860Y-105339705D01*
X131754126Y-105347464D01*
X131756300Y-105416614D01*
X131756300Y-105446143D01*
X131756301Y-105446160D01*
X131757168Y-105453031D01*
X131757626Y-105458850D01*
X131759090Y-105505424D01*
X131759091Y-105505427D01*
X131764680Y-105524667D01*
X131768624Y-105543711D01*
X131771136Y-105563592D01*
X131783567Y-105594989D01*
X131788290Y-105606919D01*
X131790182Y-105612447D01*
X131803181Y-105657188D01*
X131813380Y-105674434D01*
X131821936Y-105691900D01*
X131824969Y-105699558D01*
X131829314Y-105710532D01*
X131856698Y-105748223D01*
X131859906Y-105753107D01*
X131883627Y-105793216D01*
X131883633Y-105793224D01*
X131897790Y-105807380D01*
X131910427Y-105822175D01*
X131912101Y-105824479D01*
X131919858Y-105835156D01*
X131922206Y-105838387D01*
X131953979Y-105864672D01*
X131958109Y-105868088D01*
X131962420Y-105872010D01*
X132529205Y-106438795D01*
X132562689Y-106500117D01*
X132557705Y-106569809D01*
X132543098Y-106597598D01*
X132429965Y-106759169D01*
X132429964Y-106759171D01*
X132330098Y-106973335D01*
X132330094Y-106973344D01*
X132268938Y-107201586D01*
X132268936Y-107201596D01*
X132248341Y-107436999D01*
X132248341Y-107437000D01*
X132268936Y-107672403D01*
X132268938Y-107672413D01*
X132330094Y-107900655D01*
X132330096Y-107900659D01*
X132330097Y-107900663D01*
X132388318Y-108025517D01*
X132429965Y-108114830D01*
X132429967Y-108114834D01*
X132565501Y-108308395D01*
X132565506Y-108308402D01*
X132732597Y-108475493D01*
X132732603Y-108475498D01*
X132918158Y-108605425D01*
X132961783Y-108660002D01*
X132968977Y-108729500D01*
X132937454Y-108791855D01*
X132918158Y-108808575D01*
X132732597Y-108938505D01*
X132565505Y-109105597D01*
X132429965Y-109299169D01*
X132429964Y-109299171D01*
X132330098Y-109513335D01*
X132330094Y-109513344D01*
X132268938Y-109741586D01*
X132268936Y-109741596D01*
X132248341Y-109976999D01*
X132248341Y-109977000D01*
X132268936Y-110212403D01*
X132268938Y-110212413D01*
X132330094Y-110440655D01*
X132330096Y-110440659D01*
X132330097Y-110440663D01*
X132405563Y-110602500D01*
X132429965Y-110654830D01*
X132429967Y-110654834D01*
X132551128Y-110827870D01*
X132573455Y-110894076D01*
X132556445Y-110961843D01*
X132537234Y-110986674D01*
X132044908Y-111478999D01*
X132032651Y-111488820D01*
X132032834Y-111489041D01*
X132026823Y-111494013D01*
X131979472Y-111544436D01*
X131958589Y-111565319D01*
X131958577Y-111565332D01*
X131954321Y-111570817D01*
X131950537Y-111575247D01*
X131918637Y-111609218D01*
X131918636Y-111609220D01*
X131908984Y-111626776D01*
X131898310Y-111643026D01*
X131886029Y-111658861D01*
X131886024Y-111658868D01*
X131867515Y-111701638D01*
X131864945Y-111706884D01*
X131842503Y-111747706D01*
X131837522Y-111767107D01*
X131831221Y-111785510D01*
X131823262Y-111803902D01*
X131823261Y-111803905D01*
X131815971Y-111849927D01*
X131814787Y-111855646D01*
X131803201Y-111900772D01*
X131803200Y-111900782D01*
X131803200Y-111920816D01*
X131801673Y-111940215D01*
X131798540Y-111959994D01*
X131798540Y-111959995D01*
X131802925Y-112006383D01*
X131803200Y-112012221D01*
X131803200Y-123151055D01*
X131801475Y-123166672D01*
X131801761Y-123166699D01*
X131801026Y-123174465D01*
X131803200Y-123243614D01*
X131803200Y-123273143D01*
X131803201Y-123273160D01*
X131804068Y-123280031D01*
X131804526Y-123285850D01*
X131805990Y-123332424D01*
X131805991Y-123332427D01*
X131811580Y-123351667D01*
X131815524Y-123370711D01*
X131818036Y-123390591D01*
X131835190Y-123433919D01*
X131837082Y-123439447D01*
X131850081Y-123484188D01*
X131860280Y-123501434D01*
X131868838Y-123518903D01*
X131876214Y-123537532D01*
X131903598Y-123575223D01*
X131906806Y-123580107D01*
X131930527Y-123620216D01*
X131930533Y-123620224D01*
X131944690Y-123634380D01*
X131957328Y-123649176D01*
X131969105Y-123665386D01*
X131969106Y-123665387D01*
X132005009Y-123695088D01*
X132009320Y-123699010D01*
X132407445Y-124097136D01*
X132529162Y-124218853D01*
X132562647Y-124280176D01*
X132557663Y-124349868D01*
X132543056Y-124377657D01*
X132429965Y-124539169D01*
X132429964Y-124539171D01*
X132330098Y-124753335D01*
X132330094Y-124753344D01*
X132268938Y-124981586D01*
X132268936Y-124981596D01*
X132248341Y-125216999D01*
X132248341Y-125217000D01*
X132268936Y-125452403D01*
X132268938Y-125452413D01*
X132330094Y-125680655D01*
X132330096Y-125680659D01*
X132330097Y-125680663D01*
X132405600Y-125842580D01*
X132429965Y-125894830D01*
X132429967Y-125894834D01*
X132538281Y-126049521D01*
X132565505Y-126088401D01*
X132732599Y-126255495D01*
X132829384Y-126323265D01*
X132926165Y-126391032D01*
X132926167Y-126391033D01*
X132926170Y-126391035D01*
X133140337Y-126490903D01*
X133368592Y-126552063D01*
X133556918Y-126568539D01*
X133603999Y-126572659D01*
X133604000Y-126572659D01*
X133604001Y-126572659D01*
X133643234Y-126569226D01*
X133839408Y-126552063D01*
X134067663Y-126490903D01*
X134281830Y-126391035D01*
X134475401Y-126255495D01*
X134642495Y-126088401D01*
X134778035Y-125894830D01*
X134877903Y-125680663D01*
X134939063Y-125452408D01*
X134959659Y-125217000D01*
X134939063Y-124981592D01*
X134877903Y-124753337D01*
X134778035Y-124539171D01*
X134772817Y-124531718D01*
X134642494Y-124345597D01*
X134475402Y-124178506D01*
X134475401Y-124178505D01*
X134405649Y-124129664D01*
X134289839Y-124048573D01*
X134246216Y-123993997D01*
X134239023Y-123924498D01*
X134270545Y-123862144D01*
X134289831Y-123845432D01*
X134475401Y-123715495D01*
X134642495Y-123548401D01*
X134778035Y-123354830D01*
X134877903Y-123140663D01*
X134939063Y-122912408D01*
X134959659Y-122677000D01*
X134939063Y-122441592D01*
X134880333Y-122222406D01*
X134877905Y-122213344D01*
X134877904Y-122213343D01*
X134877903Y-122213337D01*
X134778035Y-121999171D01*
X134760317Y-121973866D01*
X134642494Y-121805597D01*
X134475402Y-121638506D01*
X134475396Y-121638501D01*
X134289842Y-121508575D01*
X134246217Y-121453998D01*
X134239023Y-121384500D01*
X134270546Y-121322145D01*
X134289842Y-121305425D01*
X134374758Y-121245966D01*
X134475401Y-121175495D01*
X134616622Y-121034274D01*
X134677945Y-121000789D01*
X134747637Y-121005773D01*
X134791984Y-121034274D01*
X134991594Y-121233884D01*
X135001419Y-121246148D01*
X135001640Y-121245966D01*
X135006610Y-121251973D01*
X135006613Y-121251976D01*
X135006614Y-121251977D01*
X135057051Y-121299341D01*
X135077930Y-121320220D01*
X135083404Y-121324466D01*
X135087842Y-121328256D01*
X135121818Y-121360162D01*
X135121822Y-121360164D01*
X135139373Y-121369813D01*
X135155631Y-121380492D01*
X135171464Y-121392774D01*
X135193415Y-121402272D01*
X135214237Y-121411283D01*
X135219481Y-121413852D01*
X135260308Y-121436297D01*
X135279712Y-121441279D01*
X135298110Y-121447578D01*
X135316505Y-121455538D01*
X135362529Y-121462826D01*
X135368232Y-121464007D01*
X135413381Y-121475600D01*
X135433416Y-121475600D01*
X135452813Y-121477126D01*
X135472596Y-121480260D01*
X135518983Y-121475875D01*
X135524822Y-121475600D01*
X146079228Y-121475600D01*
X146146267Y-121495285D01*
X146192022Y-121548089D01*
X146202167Y-121583416D01*
X146214454Y-121676753D01*
X146214457Y-121676765D01*
X146223066Y-121697550D01*
X146230533Y-121767019D01*
X146223067Y-121792449D01*
X146214455Y-121813240D01*
X146199000Y-121930638D01*
X146199000Y-122209363D01*
X146214453Y-122326753D01*
X146214456Y-122326762D01*
X146274964Y-122472841D01*
X146371218Y-122598282D01*
X146496659Y-122694536D01*
X146642738Y-122755044D01*
X146760139Y-122770500D01*
X147201547Y-122770499D01*
X147268586Y-122790183D01*
X147289228Y-122806818D01*
X151263594Y-126781184D01*
X151273419Y-126793448D01*
X151273640Y-126793266D01*
X151278610Y-126799273D01*
X151278613Y-126799276D01*
X151278614Y-126799277D01*
X151329051Y-126846641D01*
X151349930Y-126867520D01*
X151355404Y-126871766D01*
X151359842Y-126875556D01*
X151393818Y-126907462D01*
X151393822Y-126907464D01*
X151411373Y-126917113D01*
X151427631Y-126927792D01*
X151443464Y-126940074D01*
X151465415Y-126949572D01*
X151486237Y-126958583D01*
X151491481Y-126961152D01*
X151532308Y-126983597D01*
X151551712Y-126988579D01*
X151570110Y-126994878D01*
X151588505Y-127002838D01*
X151634529Y-127010126D01*
X151640232Y-127011307D01*
X151685381Y-127022900D01*
X151705416Y-127022900D01*
X151724813Y-127024426D01*
X151744596Y-127027560D01*
X151790983Y-127023175D01*
X151796822Y-127022900D01*
X166574057Y-127022900D01*
X166589677Y-127024624D01*
X166589704Y-127024339D01*
X166597460Y-127025071D01*
X166597467Y-127025073D01*
X166666614Y-127022900D01*
X166696150Y-127022900D01*
X166703028Y-127022030D01*
X166708841Y-127021572D01*
X166755427Y-127020109D01*
X166774669Y-127014517D01*
X166793712Y-127010574D01*
X166813592Y-127008064D01*
X166856922Y-126990907D01*
X166862446Y-126989017D01*
X166866196Y-126987927D01*
X166907190Y-126976018D01*
X166924429Y-126965822D01*
X166941903Y-126957262D01*
X166960527Y-126949888D01*
X166960527Y-126949887D01*
X166960532Y-126949886D01*
X166998249Y-126922482D01*
X167003105Y-126919292D01*
X167043220Y-126895570D01*
X167057389Y-126881399D01*
X167072179Y-126868768D01*
X167088387Y-126856994D01*
X167118099Y-126821076D01*
X167122012Y-126816776D01*
X168081186Y-125857602D01*
X168093448Y-125847780D01*
X168093265Y-125847559D01*
X168099267Y-125842592D01*
X168099277Y-125842586D01*
X168146641Y-125792148D01*
X168167520Y-125771270D01*
X168171773Y-125765786D01*
X168175550Y-125761363D01*
X168207462Y-125727382D01*
X168217114Y-125709823D01*
X168227789Y-125693572D01*
X168240074Y-125677736D01*
X168258586Y-125634952D01*
X168261142Y-125629735D01*
X168283597Y-125588892D01*
X168288580Y-125569480D01*
X168294877Y-125551091D01*
X168302838Y-125532695D01*
X168310129Y-125486653D01*
X168311308Y-125480962D01*
X168322900Y-125435819D01*
X168322900Y-125415782D01*
X168324427Y-125396382D01*
X168327560Y-125376604D01*
X168323175Y-125330215D01*
X168322900Y-125324377D01*
X168322900Y-100286737D01*
X168324624Y-100271123D01*
X168324338Y-100271096D01*
X168325072Y-100263333D01*
X168322900Y-100194202D01*
X168322900Y-100164651D01*
X168322900Y-100164650D01*
X168322029Y-100157759D01*
X168321572Y-100151945D01*
X168320109Y-100105374D01*
X168320109Y-100105372D01*
X168314520Y-100086137D01*
X168310574Y-100067084D01*
X168308064Y-100047208D01*
X168290901Y-100003859D01*
X168289014Y-99998346D01*
X168276017Y-99953610D01*
X168276016Y-99953608D01*
X168265821Y-99936369D01*
X168257260Y-99918893D01*
X168249886Y-99900269D01*
X168249886Y-99900267D01*
X168239874Y-99886488D01*
X168222483Y-99862550D01*
X168219300Y-99857705D01*
X168195570Y-99817579D01*
X168195565Y-99817573D01*
X168181405Y-99803413D01*
X168168770Y-99788620D01*
X168156993Y-99772412D01*
X168121093Y-99742713D01*
X168116781Y-99738790D01*
X166672664Y-98294673D01*
X166639179Y-98233350D01*
X166644163Y-98163658D01*
X166658768Y-98135872D01*
X166782035Y-97959830D01*
X166881903Y-97745663D01*
X166943063Y-97517408D01*
X166963659Y-97282000D01*
X166943063Y-97046592D01*
X166881903Y-96818337D01*
X166782035Y-96604171D01*
X166646495Y-96410599D01*
X166646494Y-96410597D01*
X166479402Y-96243506D01*
X166479395Y-96243501D01*
X166285834Y-96107967D01*
X166285830Y-96107965D01*
X166203243Y-96069454D01*
X166071663Y-96008097D01*
X166071659Y-96008096D01*
X166071655Y-96008094D01*
X165843413Y-95946938D01*
X165843403Y-95946936D01*
X165608001Y-95926341D01*
X165607999Y-95926341D01*
X165372596Y-95946936D01*
X165372586Y-95946938D01*
X165144344Y-96008094D01*
X165144335Y-96008098D01*
X164930171Y-96107964D01*
X164930169Y-96107965D01*
X164736597Y-96243505D01*
X164569505Y-96410597D01*
X164433965Y-96604169D01*
X164433964Y-96604171D01*
X164334098Y-96818335D01*
X164334094Y-96818344D01*
X164272938Y-97046586D01*
X164272936Y-97046596D01*
X164252341Y-97281999D01*
X164252341Y-97282000D01*
X164272936Y-97517403D01*
X164272938Y-97517413D01*
X164332929Y-97741307D01*
X164331266Y-97811157D01*
X164292103Y-97869019D01*
X164227874Y-97896523D01*
X164213154Y-97897400D01*
X160447843Y-97897400D01*
X160432222Y-97895675D01*
X160432195Y-97895961D01*
X160424433Y-97895226D01*
X160355272Y-97897400D01*
X160325749Y-97897400D01*
X160318878Y-97898267D01*
X160313059Y-97898725D01*
X160266474Y-97900189D01*
X160266468Y-97900190D01*
X160247226Y-97905780D01*
X160228187Y-97909723D01*
X160208317Y-97912234D01*
X160208303Y-97912237D01*
X160164983Y-97929388D01*
X160159458Y-97931280D01*
X160114713Y-97944280D01*
X160114710Y-97944281D01*
X160097466Y-97954479D01*
X160080005Y-97963033D01*
X160061374Y-97970410D01*
X160061362Y-97970417D01*
X160023670Y-97997802D01*
X160018787Y-98001009D01*
X159978680Y-98024729D01*
X159964514Y-98038895D01*
X159949724Y-98051527D01*
X159933514Y-98063304D01*
X159933511Y-98063307D01*
X159903810Y-98099209D01*
X159899877Y-98103531D01*
X153034226Y-104969181D01*
X152972903Y-105002666D01*
X152946545Y-105005500D01*
X152109598Y-105005500D01*
X152022751Y-105015928D01*
X151884553Y-105070426D01*
X151884551Y-105070427D01*
X151766186Y-105160186D01*
X151676427Y-105278551D01*
X151621928Y-105416751D01*
X151621928Y-105416752D01*
X151611500Y-105503590D01*
X151611500Y-106078401D01*
X151621928Y-106165248D01*
X151676426Y-106303446D01*
X151676427Y-106303448D01*
X151712544Y-106351075D01*
X151737367Y-106416386D01*
X151722939Y-106484750D01*
X151712544Y-106500925D01*
X151676427Y-106548551D01*
X151621928Y-106686751D01*
X151621928Y-106686752D01*
X151611500Y-106773590D01*
X151611500Y-107348401D01*
X151621928Y-107435248D01*
X151676426Y-107573446D01*
X151676427Y-107573448D01*
X151712544Y-107621075D01*
X151737367Y-107686386D01*
X151722939Y-107754750D01*
X151712544Y-107770925D01*
X151676427Y-107818551D01*
X151621928Y-107956751D01*
X151621928Y-107956752D01*
X151611500Y-108043590D01*
X151611500Y-108618401D01*
X151621928Y-108705248D01*
X151676426Y-108843446D01*
X151676427Y-108843448D01*
X151683586Y-108852888D01*
X151706789Y-108883486D01*
X151712857Y-108891487D01*
X151737681Y-108956798D01*
X151723254Y-109025162D01*
X151712859Y-109041337D01*
X151676866Y-109088801D01*
X151622418Y-109226870D01*
X151612000Y-109313637D01*
X151612000Y-109351000D01*
X154581999Y-109351000D01*
X154581999Y-109313637D01*
X154571581Y-109226870D01*
X154531799Y-109125990D01*
X154525518Y-109056403D01*
X154557855Y-108994467D01*
X154618544Y-108959846D01*
X154647154Y-108956500D01*
X158380957Y-108956500D01*
X158396577Y-108958224D01*
X158396604Y-108957939D01*
X158404360Y-108958671D01*
X158404367Y-108958673D01*
X158473514Y-108956500D01*
X158503050Y-108956500D01*
X158509928Y-108955630D01*
X158515741Y-108955172D01*
X158562327Y-108953709D01*
X158581569Y-108948117D01*
X158600612Y-108944174D01*
X158620492Y-108941664D01*
X158663822Y-108924507D01*
X158669346Y-108922617D01*
X158673096Y-108921527D01*
X158714090Y-108909618D01*
X158731329Y-108899422D01*
X158748803Y-108890862D01*
X158767427Y-108883488D01*
X158767427Y-108883487D01*
X158767432Y-108883486D01*
X158805149Y-108856082D01*
X158810005Y-108852892D01*
X158850120Y-108829170D01*
X158864289Y-108814999D01*
X158879079Y-108802368D01*
X158895287Y-108790594D01*
X158924999Y-108754676D01*
X158928912Y-108750376D01*
X164420017Y-103259271D01*
X164481338Y-103225788D01*
X164551030Y-103230772D01*
X164595377Y-103259273D01*
X164736597Y-103400493D01*
X164736603Y-103400498D01*
X164922594Y-103530730D01*
X164966219Y-103585307D01*
X164973413Y-103654805D01*
X164941890Y-103717160D01*
X164922595Y-103733880D01*
X164736922Y-103863890D01*
X164736920Y-103863891D01*
X164569891Y-104030920D01*
X164569886Y-104030926D01*
X164434400Y-104224420D01*
X164434399Y-104224422D01*
X164334570Y-104438507D01*
X164334567Y-104438513D01*
X164277364Y-104651999D01*
X164277364Y-104652000D01*
X164994653Y-104652000D01*
X165061692Y-104671685D01*
X165107447Y-104724489D01*
X165117391Y-104793647D01*
X165113631Y-104810933D01*
X165108000Y-104830111D01*
X165108000Y-104973888D01*
X165113631Y-104993067D01*
X165113630Y-105062936D01*
X165075855Y-105121714D01*
X165012299Y-105150738D01*
X164994653Y-105152000D01*
X164277364Y-105152000D01*
X164334567Y-105365486D01*
X164334570Y-105365492D01*
X164434399Y-105579578D01*
X164559524Y-105758273D01*
X164581851Y-105824479D01*
X164564841Y-105892247D01*
X164545630Y-105917078D01*
X154904528Y-115558181D01*
X154843205Y-115591666D01*
X154816847Y-115594500D01*
X154523999Y-115594500D01*
X154456960Y-115574815D01*
X154411205Y-115522011D01*
X154399999Y-115470500D01*
X154399999Y-115430636D01*
X154384546Y-115313246D01*
X154384544Y-115313239D01*
X154384544Y-115313238D01*
X154375662Y-115291797D01*
X154368194Y-115222328D01*
X154375664Y-115196890D01*
X154384055Y-115176632D01*
X154384055Y-115176630D01*
X154391512Y-115120000D01*
X154349000Y-115120000D01*
X154281961Y-115100315D01*
X154250625Y-115071487D01*
X154227784Y-115041720D01*
X154227782Y-115041719D01*
X154227782Y-115041718D01*
X154102341Y-114945464D01*
X154102339Y-114945463D01*
X154098316Y-114942376D01*
X154057114Y-114885948D01*
X154052959Y-114816202D01*
X154087171Y-114755281D01*
X154148889Y-114722529D01*
X154173803Y-114720000D01*
X154391510Y-114720000D01*
X154391511Y-114719998D01*
X154384057Y-114663372D01*
X154384055Y-114663366D01*
X154323600Y-114517414D01*
X154227424Y-114392075D01*
X154102086Y-114295899D01*
X153956134Y-114235445D01*
X153956130Y-114235444D01*
X153838830Y-114220000D01*
X153362000Y-114220000D01*
X153362000Y-114745500D01*
X153342315Y-114812539D01*
X153289511Y-114858294D01*
X153238000Y-114869500D01*
X153086000Y-114869500D01*
X153018961Y-114849815D01*
X152973206Y-114797011D01*
X152962000Y-114745500D01*
X152962000Y-114220000D01*
X152485175Y-114220000D01*
X152367871Y-114235442D01*
X152367866Y-114235444D01*
X152221910Y-114295900D01*
X152221909Y-114295901D01*
X152214692Y-114301439D01*
X152149521Y-114326629D01*
X152081077Y-114312586D01*
X152051531Y-114290739D01*
X151304219Y-113543427D01*
X151270734Y-113482104D01*
X151267900Y-113455746D01*
X151267900Y-109851000D01*
X151612001Y-109851000D01*
X151612001Y-109888362D01*
X151622418Y-109975129D01*
X151676866Y-110113199D01*
X151766543Y-110231456D01*
X151884800Y-110321133D01*
X152022870Y-110375581D01*
X152109637Y-110385999D01*
X152846999Y-110385999D01*
X152847000Y-109851000D01*
X153347000Y-109851000D01*
X153347000Y-110385999D01*
X154084363Y-110385999D01*
X154171129Y-110375581D01*
X154309199Y-110321133D01*
X154427456Y-110231456D01*
X154517133Y-110113199D01*
X154571581Y-109975129D01*
X154582000Y-109888362D01*
X154582000Y-109851000D01*
X153347000Y-109851000D01*
X152847000Y-109851000D01*
X151612001Y-109851000D01*
X151267900Y-109851000D01*
X151267900Y-105957242D01*
X151269624Y-105941622D01*
X151269339Y-105941595D01*
X151270073Y-105933833D01*
X151267900Y-105864672D01*
X151267900Y-105835156D01*
X151267900Y-105835150D01*
X151267031Y-105828279D01*
X151266573Y-105822452D01*
X151266564Y-105822176D01*
X151265110Y-105775873D01*
X151259519Y-105756630D01*
X151255573Y-105737578D01*
X151253064Y-105717708D01*
X151235904Y-105674367D01*
X151234024Y-105668879D01*
X151221018Y-105624110D01*
X151210822Y-105606870D01*
X151202261Y-105589394D01*
X151194887Y-105570770D01*
X151189672Y-105563592D01*
X151167479Y-105533045D01*
X151164288Y-105528186D01*
X151160925Y-105522500D01*
X151140570Y-105488080D01*
X151140568Y-105488078D01*
X151140565Y-105488074D01*
X151126406Y-105473915D01*
X151113768Y-105459119D01*
X151104353Y-105446160D01*
X151101994Y-105442913D01*
X151070369Y-105416751D01*
X151066088Y-105413209D01*
X151061776Y-105409286D01*
X148947303Y-103294812D01*
X148937480Y-103282550D01*
X148937259Y-103282734D01*
X148932286Y-103276723D01*
X148913704Y-103259273D01*
X148881864Y-103229373D01*
X148871419Y-103218928D01*
X148860975Y-103208483D01*
X148855486Y-103204225D01*
X148851061Y-103200447D01*
X148817082Y-103168538D01*
X148817080Y-103168536D01*
X148817077Y-103168535D01*
X148799529Y-103158888D01*
X148783263Y-103148204D01*
X148767433Y-103135925D01*
X148724668Y-103117418D01*
X148719422Y-103114848D01*
X148678593Y-103092403D01*
X148678592Y-103092402D01*
X148659193Y-103087422D01*
X148640781Y-103081118D01*
X148622398Y-103073162D01*
X148622392Y-103073160D01*
X148576374Y-103065872D01*
X148570652Y-103064687D01*
X148525521Y-103053100D01*
X148525519Y-103053100D01*
X148505484Y-103053100D01*
X148486086Y-103051573D01*
X148478662Y-103050397D01*
X148466305Y-103048440D01*
X148466304Y-103048440D01*
X148419916Y-103052825D01*
X148414078Y-103053100D01*
X134964157Y-103053100D01*
X134897118Y-103033415D01*
X134851363Y-102980611D01*
X134841419Y-102911453D01*
X134851775Y-102876696D01*
X134877900Y-102820669D01*
X134877903Y-102820663D01*
X134939063Y-102592408D01*
X134959659Y-102357000D01*
X134939063Y-102121592D01*
X134880333Y-101902406D01*
X134877905Y-101893344D01*
X134877904Y-101893343D01*
X134877903Y-101893337D01*
X134778035Y-101679171D01*
X134642495Y-101485599D01*
X134642494Y-101485597D01*
X134475402Y-101318506D01*
X134475396Y-101318501D01*
X134289842Y-101188575D01*
X134246217Y-101133998D01*
X134239023Y-101064500D01*
X134270546Y-101002145D01*
X134289842Y-100985425D01*
X134312026Y-100969891D01*
X134475401Y-100855495D01*
X134642495Y-100688401D01*
X134778035Y-100494830D01*
X134877903Y-100280663D01*
X134939063Y-100052408D01*
X134959659Y-99817000D01*
X134939063Y-99581592D01*
X134880333Y-99362406D01*
X134877905Y-99353344D01*
X134877904Y-99353343D01*
X134877903Y-99353337D01*
X134778035Y-99139171D01*
X134642495Y-98945599D01*
X134520567Y-98823671D01*
X134487084Y-98762351D01*
X134492068Y-98692659D01*
X134533939Y-98636725D01*
X134564915Y-98619810D01*
X134696331Y-98570796D01*
X134811546Y-98484546D01*
X134897796Y-98369331D01*
X134948091Y-98234483D01*
X134954500Y-98174873D01*
X134954499Y-96379128D01*
X134948091Y-96319517D01*
X134919740Y-96243505D01*
X134897797Y-96184671D01*
X134897793Y-96184664D01*
X134811547Y-96069455D01*
X134811544Y-96069452D01*
X134696335Y-95983206D01*
X134696328Y-95983202D01*
X134561482Y-95932908D01*
X134561483Y-95932908D01*
X134501883Y-95926501D01*
X134501881Y-95926500D01*
X134501873Y-95926500D01*
X134501864Y-95926500D01*
X132706129Y-95926500D01*
X132706123Y-95926501D01*
X132646516Y-95932908D01*
X132511671Y-95983202D01*
X132511664Y-95983206D01*
X132396455Y-96069452D01*
X132396452Y-96069455D01*
X132310206Y-96184664D01*
X132310202Y-96184671D01*
X132259908Y-96319517D01*
X132253501Y-96379116D01*
X132253501Y-96379123D01*
X132253500Y-96379135D01*
X132253500Y-98174870D01*
X132253501Y-98174876D01*
X132259908Y-98234483D01*
X132310202Y-98369328D01*
X132310206Y-98369335D01*
X132396452Y-98484544D01*
X132396455Y-98484547D01*
X132511664Y-98570793D01*
X132511671Y-98570797D01*
X132643081Y-98619810D01*
X132699015Y-98661681D01*
X132723432Y-98727145D01*
X132708580Y-98795418D01*
X132687430Y-98823673D01*
X132565503Y-98945600D01*
X132429965Y-99139169D01*
X132429964Y-99139171D01*
X132330098Y-99353335D01*
X132330094Y-99353344D01*
X132268938Y-99581586D01*
X132268936Y-99581596D01*
X132248341Y-99816999D01*
X132248341Y-99817000D01*
X132268936Y-100052403D01*
X132268938Y-100052413D01*
X132330094Y-100280655D01*
X132330096Y-100280659D01*
X132330097Y-100280663D01*
X132403273Y-100437589D01*
X132429965Y-100494830D01*
X132429967Y-100494834D01*
X132443704Y-100514452D01*
X132563675Y-100685788D01*
X132565501Y-100688395D01*
X132565506Y-100688402D01*
X132732597Y-100855493D01*
X132732603Y-100855498D01*
X132918158Y-100985425D01*
X132961783Y-101040002D01*
X132968977Y-101109500D01*
X132937454Y-101171855D01*
X132918158Y-101188575D01*
X132732597Y-101318505D01*
X132565505Y-101485597D01*
X132429965Y-101679169D01*
X132429964Y-101679171D01*
X132330098Y-101893335D01*
X132330094Y-101893344D01*
X132268938Y-102121586D01*
X132268936Y-102121596D01*
X132248341Y-102356999D01*
X132248341Y-102357000D01*
X132268936Y-102592403D01*
X132268938Y-102592413D01*
X132330094Y-102820655D01*
X132330096Y-102820659D01*
X132330097Y-102820663D01*
X132379648Y-102926925D01*
X132429965Y-103034830D01*
X132429967Y-103034834D01*
X132568610Y-103232836D01*
X132567075Y-103233910D01*
X132591752Y-103290329D01*
X132580697Y-103359318D01*
X132556427Y-103393680D01*
X131998008Y-103952099D01*
X131985751Y-103961920D01*
X131985934Y-103962141D01*
X131979923Y-103967113D01*
X131932572Y-104017536D01*
X131911689Y-104038419D01*
X131911677Y-104038432D01*
X131907421Y-104043917D01*
X131903637Y-104048347D01*
X131871737Y-104082318D01*
X131871736Y-104082320D01*
X131862084Y-104099876D01*
X131851410Y-104116126D01*
X131839129Y-104131961D01*
X131839124Y-104131968D01*
X131820615Y-104174738D01*
X131818045Y-104179984D01*
X131795603Y-104220806D01*
X131790622Y-104240207D01*
X131784321Y-104258610D01*
X131776362Y-104277002D01*
X131776361Y-104277006D01*
X131769071Y-104323027D01*
X131767887Y-104328746D01*
X131756299Y-104373883D01*
X131756299Y-104393919D01*
X131754773Y-104413307D01*
X131751640Y-104433092D01*
X131751639Y-104433098D01*
X130302000Y-104433098D01*
X130302000Y-94612000D01*
X130321685Y-94544961D01*
X130374489Y-94499206D01*
X130426000Y-94488000D01*
X169294000Y-94488000D01*
X169361039Y-94507685D01*
G37*
G04 #@! TD.AperFunction*
M02*
